<svg width="13" height="117" viewBox="0 0 13 117" fill="none" xmlns="http://www.w3.org/2000/svg">
<rect y="115.313" width="16" height="1" transform="rotate(-45 0 115.313)" fill="#F8F8F8"/>
<rect x="1" y="104" width="16" height="1" transform="rotate(45 1 104)" fill="#F8F8F8"/>
<path d="M11.18 32.662C11.18 33.522 10.99 34.248 10.61 34.84C10.226 35.432 9.696 35.88 9.02 36.184C8.344 36.488 7.564 36.64 6.68 36.64C5.796 36.64 5.016 36.488 4.34 36.184C3.664 35.88 3.136 35.432 2.756 34.84C2.372 34.248 2.18 33.522 2.18 32.662C2.18 31.658 2.438 30.838 2.954 30.202C3.466 29.566 4.154 29.13 5.018 28.894L5.252 29.794C4.568 29.978 4.026 30.308 3.626 30.784C3.226 31.26 3.026 31.886 3.026 32.662C3.026 33.338 3.18 33.9 3.488 34.348C3.796 34.796 4.226 35.134 4.778 35.362C5.326 35.586 5.96 35.702 6.68 35.71C7.4 35.714 8.034 35.604 8.582 35.38C9.13 35.152 9.56 34.812 9.872 34.36C10.18 33.904 10.334 33.338 10.334 32.662C10.334 31.886 10.134 31.26 9.734 30.784C9.33 30.308 8.788 29.978 8.108 29.794L8.342 28.894C9.206 29.13 9.896 29.566 10.412 30.202C10.924 30.838 11.18 31.658 11.18 32.662ZM11 27.4502L2.36 27.4502L2.36 26.5682L10.154 26.5682L10.154 22.4642L11 22.4642L11 27.4502ZM11.18 18.1776C11.18 19.0376 10.99 19.7636 10.61 20.3556C10.226 20.9476 9.696 21.3956 9.02 21.6996C8.344 22.0036 7.564 22.1556 6.68 22.1556C5.796 22.1556 5.016 22.0036 4.34 21.6996C3.664 21.3956 3.136 20.9476 2.756 20.3556C2.372 19.7636 2.18 19.0376 2.18 18.1776C2.18 17.3136 2.372 16.5876 2.756 15.9996C3.136 15.4076 3.664 14.9596 4.34 14.6556C5.016 14.3476 5.796 14.1936 6.68 14.1936C7.564 14.1936 8.344 14.3476 9.02 14.6556C9.696 14.9596 10.226 15.4076 10.61 15.9996C10.99 16.5876 11.18 17.3136 11.18 18.1776ZM10.334 18.1776C10.334 17.5016 10.18 16.9376 9.872 16.4856C9.564 16.0336 9.136 15.6956 8.588 15.4716C8.036 15.2436 7.4 15.1296 6.68 15.1296C5.96 15.1296 5.326 15.2436 4.778 15.4716C4.23 15.6956 3.802 16.0336 3.494 16.4856C3.186 16.9376 3.03 17.5016 3.026 18.1776C3.026 18.8536 3.18 19.4156 3.488 19.8636C3.796 20.3116 4.226 20.6496 4.778 20.8776C5.326 21.1016 5.96 21.2156 6.68 21.2196C7.4 21.2236 8.034 21.1136 8.582 20.8896C9.126 20.6616 9.554 20.3216 9.866 19.8696C10.174 19.4176 10.33 18.8536 10.334 18.1776ZM11.18 9.99203C11.18 10.596 11.08 11.14 10.88 11.624C10.676 12.104 10.388 12.502 10.016 12.818C9.644 13.13 9.202 13.334 8.69 13.43L8.54 12.53C9.1 12.386 9.54 12.082 9.86 11.618C10.176 11.154 10.334 10.6 10.334 9.95603C10.334 9.53203 10.268 9.15203 10.136 8.81603C10 8.48003 9.808 8.21603 9.56 8.02403C9.312 7.83203 9.018 7.73603 8.678 7.73603C8.454 7.73603 8.264 7.77603 8.108 7.85603C7.948 7.93603 7.816 8.04203 7.712 8.17403C7.608 8.30603 7.522 8.45003 7.454 8.60603C7.382 8.76203 7.324 8.91403 7.28 9.06203L6.626 11.252C6.55 11.516 6.454 11.76 6.338 11.984C6.218 12.208 6.076 12.404 5.912 12.572C5.744 12.736 5.548 12.864 5.324 12.956C5.1 13.048 4.844 13.094 4.556 13.094C4.068 13.094 3.646 12.966 3.29 12.71C2.934 12.454 2.66 12.104 2.468 11.66C2.276 11.216 2.182 10.71 2.186 10.142C2.186 9.56603 2.288 9.05203 2.492 8.60003C2.696 8.14403 2.988 7.76803 3.368 7.47203C3.744 7.17603 4.19 6.98003 4.706 6.88403L4.874 7.80803C4.498 7.86803 4.172 8.00603 3.896 8.22203C3.62 8.43803 3.408 8.71403 3.26 9.05003C3.108 9.38203 3.03 9.74803 3.026 10.148C3.026 10.536 3.092 10.882 3.224 11.186C3.352 11.486 3.528 11.724 3.752 11.9C3.976 12.076 4.232 12.164 4.52 12.164C4.812 12.164 5.046 12.084 5.222 11.924C5.398 11.76 5.536 11.56 5.636 11.324C5.736 11.084 5.818 10.852 5.882 10.628L6.38 8.93603C6.428 8.76003 6.498 8.55403 6.59 8.31803C6.678 8.07803 6.806 7.84603 6.974 7.62203C7.138 7.39403 7.354 7.20603 7.622 7.05803C7.89 6.91003 8.23 6.83603 8.642 6.83603C9.042 6.83603 9.4 6.91603 9.716 7.07603C10.032 7.23203 10.298 7.45403 10.514 7.74203C10.73 8.02603 10.894 8.36003 11.006 8.74403C11.122 9.12403 11.18 9.54003 11.18 9.99203ZM11 5.5975L2.36 5.5975L2.36 0.197499L3.206 0.197499L3.206 4.7155L6.194 4.7155L6.194 0.917499L7.04 0.917499L7.04 4.7155L10.154 4.7155L10.154 0.197499L11 0.197499L11 5.5975Z" fill="#F8F8F8"/>
<rect x="6" y="42" width="1" height="44" fill="#F8F8F8"/>
</svg>
