<svg width="440" height="239" viewBox="0 0 440 239" fill="none" xmlns="http://www.w3.org/2000/svg">
<path d="M157.56 65.2H164.344L167.48 99.632H167.608L170.936 65.2H178.616L181.944 99.632H182.072L185.208 65.2H191.288L186.744 110H177.976L174.776 79.792H174.648L171.448 110H162.104L157.56 65.2ZM209.334 65.2H218.87L226.166 110H219.126L217.846 101.104V101.232H209.846L208.566 110H202.038L209.334 65.2ZM217.014 95.152L213.878 73.008H213.75L210.678 95.152H217.014ZM242.068 71.6H234.708V65.2H256.468V71.6H249.108V110H242.068V71.6ZM269.796 65.2H288.996V71.6H276.836V83.44H286.5V89.84H276.836V103.6H288.996V110H269.796V65.2ZM302.966 65.2H313.398C317.025 65.2 319.67 66.0533 321.334 67.76C322.998 69.424 323.83 72.0053 323.83 75.504V78.256C323.83 82.9067 322.294 85.8507 319.222 87.088V87.216C320.929 87.728 322.124 88.7733 322.806 90.352C323.532 91.9307 323.895 94.0427 323.895 96.688V104.56C323.895 105.84 323.937 106.885 324.022 107.696C324.108 108.464 324.321 109.232 324.663 110H317.494C317.238 109.275 317.068 108.592 316.983 107.952C316.897 107.312 316.854 106.16 316.854 104.496V96.304C316.854 94.256 316.513 92.8267 315.83 92.016C315.19 91.2053 314.06 90.8 312.438 90.8H310.006V110H302.966V65.2ZM312.566 84.4C313.974 84.4 315.02 84.0373 315.702 83.312C316.428 82.5867 316.79 81.3707 316.79 79.664V76.208C316.79 74.5867 316.492 73.4133 315.894 72.688C315.34 71.9627 314.444 71.6 313.206 71.6H310.006V84.4H312.566ZM338.699 65.2H345.739V110H338.699V65.2ZM360.931 65.2H369.763L376.611 92.016H376.739V65.2H383.011V110H375.779L367.331 77.296H367.203V110H360.931V65.2ZM408.148 110.64C404.735 110.64 402.132 109.68 400.34 107.76C398.548 105.797 397.652 103.003 397.652 99.376V75.824C397.652 72.1973 398.548 69.424 400.34 67.504C402.132 65.5413 404.735 64.56 408.148 64.56C411.561 64.56 414.164 65.5413 415.956 67.504C417.748 69.424 418.644 72.1973 418.644 75.824V79.664H411.988V75.376C411.988 72.432 410.772 70.96 408.34 70.96C405.908 70.96 404.692 72.432 404.692 75.376V99.888C404.692 102.789 405.908 104.24 408.34 104.24C410.772 104.24 411.988 102.789 411.988 99.888V91.12H408.468V84.72H418.644V99.376C418.644 103.003 417.748 105.797 415.956 107.76C414.164 109.68 411.561 110.64 408.148 110.64ZM435.388 110H433.084V103.216H439.868V109.296L436.348 117.68H433.084L435.388 110ZM11.8 174.64C8.344 174.64 5.69867 173.659 3.864 171.696C2.02933 169.733 1.112 166.96 1.112 163.376V139.824C1.112 136.24 2.02933 133.467 3.864 131.504C5.69867 129.541 8.344 128.56 11.8 128.56C15.256 128.56 17.9013 129.541 19.736 131.504C21.5707 133.467 22.488 136.24 22.488 139.824V163.376C22.488 166.96 21.5707 169.733 19.736 171.696C17.9013 173.659 15.256 174.64 11.8 174.64ZM11.8 168.24C14.232 168.24 15.448 166.768 15.448 163.824V139.376C15.448 136.432 14.232 134.96 11.8 134.96C9.368 134.96 8.152 136.432 8.152 139.376V163.824C8.152 166.768 9.368 168.24 11.8 168.24ZM37.169 129.2H47.601C51.2277 129.2 53.873 130.053 55.537 131.76C57.201 133.424 58.033 136.005 58.033 139.504V142.256C58.033 146.907 56.497 149.851 53.425 151.088V151.216C55.1317 151.728 56.3263 152.773 57.009 154.352C57.7343 155.931 58.097 158.043 58.097 160.688V168.56C58.097 169.84 58.1397 170.885 58.225 171.696C58.3103 172.464 58.5237 173.232 58.865 174H51.697C51.441 173.275 51.2703 172.592 51.185 171.952C51.0997 171.312 51.057 170.16 51.057 168.496V160.304C51.057 158.256 50.7157 156.827 50.033 156.016C49.393 155.205 48.2623 154.8 46.641 154.8H44.209V174H37.169V129.2ZM46.769 148.4C48.177 148.4 49.2223 148.037 49.905 147.312C50.6303 146.587 50.993 145.371 50.993 143.664V140.208C50.993 138.587 50.6943 137.413 50.097 136.688C49.5423 135.963 48.6463 135.6 47.409 135.6H44.209V148.4H46.769ZM72.9015 129.2H79.9415V174H72.9015V129.2ZM105.118 174.64C101.705 174.64 99.102 173.68 97.31 171.76C95.518 169.797 94.622 167.003 94.622 163.376V139.824C94.622 136.197 95.518 133.424 97.31 131.504C99.102 129.541 101.705 128.56 105.118 128.56C108.531 128.56 111.134 129.541 112.926 131.504C114.718 133.424 115.614 136.197 115.614 139.824V143.664H108.958V139.376C108.958 136.432 107.742 134.96 105.31 134.96C102.878 134.96 101.662 136.432 101.662 139.376V163.888C101.662 166.789 102.878 168.24 105.31 168.24C107.742 168.24 108.958 166.789 108.958 163.888V155.12H105.438V148.72H115.614V163.376C115.614 167.003 114.718 169.797 112.926 171.76C111.134 173.68 108.531 174.64 105.118 174.64ZM135.494 129.2H145.03L152.326 174H145.286L144.006 165.104V165.232H136.006L134.726 174H128.198L135.494 129.2ZM143.174 159.152L140.038 137.008H139.91L136.838 159.152H143.174ZM165.662 129.2H175.71L180.19 161.264H180.318L184.798 129.2H194.846V174H188.19V140.08H188.062L182.942 174H177.054L171.934 140.08H171.806V174H165.662V129.2ZM210.019 129.2H217.059V174H210.019V129.2ZM1.624 193.2H11.992C15.4907 193.2 18.1147 194.139 19.864 196.016C21.6133 197.893 22.488 200.645 22.488 204.272V208.688C22.488 212.315 21.6133 215.067 19.864 216.944C18.1147 218.821 15.4907 219.76 11.992 219.76H8.664V238H1.624V193.2ZM11.992 213.36C13.144 213.36 13.9973 213.04 14.552 212.4C15.1493 211.76 15.448 210.672 15.448 209.136V203.824C15.448 202.288 15.1493 201.2 14.552 200.56C13.9973 199.92 13.144 199.6 11.992 199.6H8.664V213.36H11.992ZM46.4075 238.64C42.9515 238.64 40.3062 237.659 38.4715 235.696C36.6368 233.733 35.7195 230.96 35.7195 227.376V203.824C35.7195 200.24 36.6368 197.467 38.4715 195.504C40.3062 193.541 42.9515 192.56 46.4075 192.56C49.8635 192.56 52.5088 193.541 54.3435 195.504C56.1782 197.467 57.0955 200.24 57.0955 203.824V227.376C57.0955 230.96 56.1782 233.733 54.3435 235.696C52.5088 237.659 49.8635 238.64 46.4075 238.64ZM46.4075 232.24C48.8395 232.24 50.0555 230.768 50.0555 227.824V203.376C50.0555 200.432 48.8395 198.96 46.4075 198.96C43.9755 198.96 42.7595 200.432 42.7595 203.376V227.824C42.7595 230.768 43.9755 232.24 46.4075 232.24ZM77.0305 199.6H69.6705V193.2H91.4305V199.6H84.0705V238H77.0305V199.6ZM113.911 238.64C110.498 238.64 107.916 237.68 106.167 235.76C104.418 233.797 103.543 231.003 103.543 227.376V224.816H110.199V227.888C110.199 230.789 111.415 232.24 113.847 232.24C115.042 232.24 115.938 231.899 116.535 231.216C117.175 230.491 117.495 229.339 117.495 227.76C117.495 225.883 117.068 224.24 116.215 222.832C115.362 221.381 113.783 219.653 111.479 217.648C108.578 215.088 106.551 212.784 105.399 210.736C104.247 208.645 103.671 206.299 103.671 203.696C103.671 200.155 104.567 197.424 106.359 195.504C108.151 193.541 110.754 192.56 114.167 192.56C117.538 192.56 120.076 193.541 121.783 195.504C123.532 197.424 124.407 200.197 124.407 203.824V205.68H117.751V203.376C117.751 201.84 117.452 200.731 116.855 200.048C116.258 199.323 115.383 198.96 114.231 198.96C111.884 198.96 110.711 200.389 110.711 203.248C110.711 204.869 111.138 206.384 111.991 207.792C112.887 209.2 114.487 210.907 116.791 212.912C119.735 215.472 121.762 217.797 122.871 219.888C123.98 221.979 124.535 224.432 124.535 227.248C124.535 230.917 123.618 233.733 121.783 235.696C119.991 237.659 117.367 238.64 113.911 238.64Z" fill="#03839E"/>
<path d="M1.624 1.2V0.52358H0.947583V1.2H1.624ZM19.864 4.016L19.3691 4.47713L19.3691 4.47713L19.864 4.016ZM19.864 24.944L19.3691 24.4829L19.864 24.944ZM8.664 27.76V27.0836H7.98758V27.76H8.664ZM8.664 46V46.6764H9.34042V46H8.664ZM1.624 46H0.947583V46.6764H1.624V46ZM14.552 20.4L14.0575 19.9385L14.049 19.9476L14.0408 19.957L14.552 20.4ZM14.552 8.56L14.0408 9.003L14.049 9.01242L14.0575 9.02153L14.552 8.56ZM8.664 7.6V6.92358H7.98758V7.6H8.664ZM8.664 21.36H7.98758V22.0364H8.664V21.36ZM1.624 1.87641H11.992V0.52358H1.624V1.87641ZM11.992 1.87641C15.3737 1.87641 17.7891 2.78145 19.3691 4.47713L20.3589 3.55487C18.4403 1.49588 15.6077 0.52358 11.992 0.52358V1.87641ZM19.3691 4.47713C20.9611 6.18563 21.8116 8.74569 21.8116 12.272H23.1644C23.1644 8.54498 22.2655 5.60104 20.3589 3.55487L19.3691 4.47713ZM21.8116 12.272V16.688H23.1644V12.272H21.8116ZM21.8116 16.688C21.8116 20.2143 20.9611 22.7744 19.3691 24.4829L20.3589 25.4051C22.2655 23.359 23.1644 20.415 23.1644 16.688H21.8116ZM19.3691 24.4829C17.7891 26.1786 15.3737 27.0836 11.992 27.0836V28.4364C15.6077 28.4364 18.4403 27.4641 20.3589 25.4051L19.3691 24.4829ZM11.992 27.0836H8.664V28.4364H11.992V27.0836ZM7.98758 27.76V46H9.34042V27.76H7.98758ZM8.664 45.3236H1.624V46.6764H8.664V45.3236ZM2.30042 46V1.2H0.947583V46H2.30042ZM11.992 22.0364C13.266 22.0364 14.3383 21.6794 15.0632 20.843L14.0408 19.957C13.6564 20.4006 13.022 20.6836 11.992 20.6836V22.0364ZM15.0465 20.8615C15.822 20.0306 16.1244 18.7251 16.1244 17.136H14.7716C14.7716 18.6189 14.4766 19.4894 14.0575 19.9385L15.0465 20.8615ZM16.1244 17.136V11.824H14.7716V17.136H16.1244ZM16.1244 11.824C16.1244 10.2349 15.822 8.92941 15.0465 8.09847L14.0575 9.02153C14.4766 9.47059 14.7716 10.3411 14.7716 11.824H16.1244ZM15.0632 8.11699C14.3383 7.28063 13.266 6.92358 11.992 6.92358V8.27641C13.022 8.27641 13.6564 8.55937 14.0408 9.003L15.0632 8.11699ZM11.992 6.92358H8.664V8.27641H11.992V6.92358ZM7.98758 7.6V21.36H9.34042V7.6H7.98758ZM8.664 22.0364H11.992V20.6836H8.664V22.0364ZM38.4715 43.696L38.9656 43.2341L38.4715 43.696ZM38.4715 3.504L38.9656 3.96591L38.4715 3.504ZM54.3435 3.504L53.8494 3.96591L54.3435 3.504ZM54.3435 43.696L53.8494 43.2341L54.3435 43.696ZM46.4075 45.9636C43.0821 45.9636 40.6382 45.0234 38.9656 43.2341L37.9774 44.1579C39.9741 46.294 42.8209 47.3164 46.4075 47.3164V45.9636ZM38.9656 43.2341C37.2828 41.4338 36.3959 38.8471 36.3959 35.376H35.0431C35.0431 39.0729 35.9909 42.0329 37.9774 44.1579L38.9656 43.2341ZM36.3959 35.376V11.824H35.0431V35.376H36.3959ZM36.3959 11.824C36.3959 8.35294 37.2828 5.76621 38.9656 3.96591L37.9774 3.04208C35.9909 5.16712 35.0431 8.12706 35.0431 11.824H36.3959ZM38.9656 3.96591C40.6382 2.17663 43.0821 1.23641 46.4075 1.23641V-0.116419C42.8209 -0.116419 39.9741 0.90603 37.9774 3.04208L38.9656 3.96591ZM46.4075 1.23641C49.7329 1.23641 52.1768 2.17663 53.8494 3.96591L54.8376 3.04208C52.8409 0.90603 49.9941 -0.116419 46.4075 -0.116419V1.23641ZM53.8494 3.96591C55.5322 5.76621 56.4191 8.35294 56.4191 11.824H57.7719C57.7719 8.12706 56.8241 5.16712 54.8376 3.04208L53.8494 3.96591ZM56.4191 11.824V35.376H57.7719V11.824H56.4191ZM56.4191 35.376C56.4191 38.8471 55.5322 41.4338 53.8494 43.2341L54.8376 44.1579C56.8241 42.0329 57.7719 39.0729 57.7719 35.376H56.4191ZM53.8494 43.2341C52.1768 45.0234 49.7329 45.9636 46.4075 45.9636V47.3164C49.9941 47.3164 52.8409 46.294 54.8376 44.1579L53.8494 43.2341ZM46.4075 40.9164C47.7654 40.9164 48.8947 40.4992 49.665 39.5668C50.4148 38.6591 50.7319 37.3722 50.7319 35.824H49.3791C49.3791 37.2198 49.0882 38.1409 48.622 38.7052C48.1763 39.2448 47.4816 39.5636 46.4075 39.5636V40.9164ZM50.7319 35.824V11.376H49.3791V35.824H50.7319ZM50.7319 11.376C50.7319 9.82782 50.4148 8.5409 49.665 7.6332C48.8947 6.70075 47.7654 6.28358 46.4075 6.28358V7.63642C47.4816 7.63642 48.1763 7.95525 48.622 8.4948C49.0882 9.0591 49.3791 9.98017 49.3791 11.376H50.7319ZM46.4075 6.28358C45.0496 6.28358 43.9203 6.70075 43.15 7.6332C42.4002 8.5409 42.0831 9.82782 42.0831 11.376H43.4359C43.4359 9.98017 43.7268 9.0591 44.193 8.4948C44.6387 7.95525 45.3334 7.63642 46.4075 7.63642V6.28358ZM42.0831 11.376V35.824H43.4359V11.376H42.0831ZM42.0831 35.824C42.0831 37.3722 42.4002 38.6591 43.15 39.5668C43.9203 40.4992 45.0496 40.9164 46.4075 40.9164V39.5636C45.3334 39.5636 44.6387 39.2448 44.193 38.7052C43.7268 38.1409 43.4359 37.2198 43.4359 35.824H42.0831ZM77.0305 7.6H77.7069V6.92358H77.0305V7.6ZM69.6705 7.6H68.9941V8.27641H69.6705V7.6ZM69.6705 1.2V0.52358H68.9941V1.2H69.6705ZM91.4305 1.2H92.1069V0.52358H91.4305V1.2ZM91.4305 7.6V8.27641H92.1069V7.6H91.4305ZM84.0705 7.6V6.92358H83.3941V7.6H84.0705ZM84.0705 46V46.6764H84.7469V46H84.0705ZM77.0305 46H76.3541V46.6764H77.0305V46ZM77.0305 6.92358H69.6705V8.27641H77.0305V6.92358ZM70.3469 7.6V1.2H68.9941V7.6H70.3469ZM69.6705 1.87641H91.4305V0.52358H69.6705V1.87641ZM90.7541 1.2V7.6H92.1069V1.2H90.7541ZM91.4305 6.92358H84.0705V8.27641H91.4305V6.92358ZM83.3941 7.6V46H84.7469V7.6H83.3941ZM84.0705 45.3236H77.0305V46.6764H84.0705V45.3236ZM77.7069 46V7.6H76.3541V46H77.7069ZM104.759 1.2V0.52358H104.083V1.2H104.759ZM123.127 3.76L122.643 4.23224L122.649 4.2383L123.127 3.76ZM121.015 23.088L120.762 22.4606L120.339 22.6312V23.088H121.015ZM121.015 23.216H120.339V23.7193L120.821 23.8639L121.015 23.216ZM124.599 26.352L123.978 26.6205L123.981 26.6275L123.984 26.6344L124.599 26.352ZM125.815 43.696L125.142 43.7668L125.143 43.7707L125.815 43.696ZM126.455 46V46.6764H127.496L127.073 45.7253L126.455 46ZM119.287 46L118.649 46.2251L118.808 46.6764H119.287V46ZM117.623 28.016L117.092 28.4351L117.099 28.4435L117.106 28.4517L117.623 28.016ZM111.799 26.8V26.1236H111.123V26.8H111.799ZM111.799 46V46.6764H112.475V46H111.799ZM104.759 46H104.083V46.6764H104.759V46ZM117.495 19.312L117.017 18.8337L117.009 18.8409L117.002 18.8484L117.495 19.312ZM117.687 8.688L117.15 9.09889L117.157 9.10858L117.165 9.118L117.687 8.688ZM111.799 7.6V6.92358H111.123V7.6H111.799ZM111.799 20.4H111.123V21.0764H111.799V20.4ZM104.759 1.87641H115.191V0.52358H104.759V1.87641ZM115.191 1.87641C118.729 1.87641 121.159 2.71071 122.643 4.2322L123.611 3.28779C121.767 1.39595 118.906 0.52358 115.191 0.52358V1.87641ZM122.649 4.2383C124.136 5.72511 124.947 8.09813 124.947 11.504H126.299C126.299 7.91253 125.446 5.12288 123.605 3.2817L122.649 4.2383ZM124.947 11.504V14.256H126.299V11.504H124.947ZM124.947 14.256C124.947 16.5135 124.573 18.2946 123.871 19.6391C123.178 20.9687 122.148 21.9023 120.762 22.4606L121.268 23.7154C122.954 23.0364 124.228 21.8793 125.071 20.2649C125.905 18.6654 126.299 16.6492 126.299 14.256H124.947ZM120.339 23.088V23.216H121.691V23.088H120.339ZM120.821 23.8639C122.344 24.3209 123.378 25.2325 123.978 26.6205L125.22 26.0835C124.455 24.3142 123.099 23.1351 121.209 22.5681L120.821 23.8639ZM123.984 26.6344C124.653 28.0904 125.011 30.094 125.011 32.688H126.363C126.363 29.9913 125.995 27.7709 125.214 26.0696L123.984 26.6344ZM125.011 32.688V40.56H126.363V32.688H125.011ZM125.011 40.56C125.011 41.852 125.054 42.9233 125.142 43.7668L126.488 43.6252C126.406 42.8473 126.363 41.828 126.363 40.56H125.011ZM125.143 43.7707C125.236 44.6135 125.47 45.4488 125.837 46.2747L127.073 45.7253C126.758 45.0152 126.564 44.3145 126.487 43.6213L125.143 43.7707ZM126.455 45.3236H119.287V46.6764H126.455V45.3236ZM119.925 45.7749C119.682 45.0855 119.524 44.4486 119.445 43.8626L118.105 44.0414C118.197 44.7354 118.38 45.4639 118.649 46.2251L119.925 45.7749ZM119.445 43.8626C119.367 43.2727 119.323 42.1624 119.323 40.496H117.971C117.971 42.1576 118.013 43.3513 118.105 44.0414L119.445 43.8626ZM119.323 40.496V32.304H117.971V40.496H119.323ZM119.323 32.304C119.323 30.2248 118.986 28.5842 118.14 27.5803L117.106 28.4517C117.626 29.0692 117.971 30.2872 117.971 32.304H119.323ZM118.154 27.5969C117.327 26.549 115.94 26.1236 114.231 26.1236V27.4764C115.764 27.4764 116.639 27.8617 117.092 28.4351L118.154 27.5969ZM114.231 26.1236H111.799V27.4764H114.231V26.1236ZM111.123 26.8V46H112.475V26.8H111.123ZM111.799 45.3236H104.759V46.6764H111.799V45.3236ZM105.435 46V1.2H104.083V46H105.435ZM114.359 21.0764C115.875 21.0764 117.132 20.685 117.988 19.7756L117.002 18.8484C116.493 19.3896 115.659 19.7236 114.359 19.7236V21.0764ZM117.973 19.7903C118.888 18.876 119.259 17.4374 119.259 15.664H117.907C117.907 17.304 117.553 18.2973 117.017 18.8337L117.973 19.7903ZM119.259 15.664V12.208H117.907V15.664H119.259ZM119.259 12.208C119.259 10.533 118.956 9.16541 118.209 8.258L117.165 9.118C117.612 9.66125 117.907 10.6404 117.907 12.208H119.259ZM118.224 8.27711C117.5 7.32951 116.367 6.92358 114.999 6.92358V8.27641C116.106 8.27641 116.765 8.59582 117.15 9.09889L118.224 8.27711ZM114.999 6.92358H111.799V8.27641H114.999V6.92358ZM111.123 7.6V20.4H112.475V7.6H111.123ZM111.799 21.0764H114.359V19.7236H111.799V21.0764ZM158.806 25.52L158.222 25.1785L157.918 25.6977L158.398 26.06L158.806 25.52ZM162.454 20.656L162.902 21.1626L162.903 21.1616L162.454 20.656ZM168.598 19.504L168.849 18.876V18.876L168.598 19.504ZM171.286 20.976L171.646 20.4036L171.286 20.976ZM173.654 22.448L173.305 23.028L173.339 23.0478L173.374 23.0638L173.654 22.448ZM176.918 22L177.396 22.4783L177.405 22.4687L177.415 22.4588L176.918 22ZM179.222 18.928L179.629 18.388L179.064 17.9618L178.664 18.5455L179.222 18.928ZM182.87 21.68L183.453 22.0215L183.757 21.5023L183.277 21.14L182.87 21.68ZM179.158 26.608L179.606 27.1146L179.607 27.1136L179.158 26.608ZM173.078 27.696L173.329 27.068L173.078 27.696ZM170.39 26.224L170.029 26.7964L170.39 26.224ZM167.958 24.816L167.609 25.396L167.643 25.4158L167.678 25.4318L167.958 24.816ZM164.758 25.264L165.236 25.7423L165.245 25.7327L165.255 25.7228L164.758 25.264ZM162.454 28.272L162.046 28.812L162.611 29.2382L163.011 28.6545L162.454 28.272ZM159.389 25.8615C160.699 23.6222 161.872 22.0733 162.902 21.1626L162.005 20.1494C160.816 21.2013 159.557 22.8951 158.222 25.1785L159.389 25.8615ZM162.903 21.1616C163.928 20.2505 165.132 19.7964 166.549 19.7964V18.4436C164.81 18.4436 163.283 19.0135 162.004 20.1504L162.903 21.1616ZM166.549 19.7964C167.193 19.7964 167.79 19.9096 168.346 20.132L168.849 18.876C168.125 18.5863 167.356 18.4436 166.549 18.4436V19.7964ZM168.346 20.132C168.927 20.3645 169.781 20.8281 170.925 21.5484L171.646 20.4036C170.486 19.6732 169.548 19.1555 168.849 18.876L168.346 20.132ZM170.925 21.5484C172.077 22.2734 172.872 22.7677 173.305 23.028L174.002 21.868C173.582 21.6163 172.799 21.1293 171.646 20.4036L170.925 21.5484ZM173.374 23.0638C173.922 23.3131 174.486 23.4444 175.062 23.4444V22.0916C174.698 22.0916 174.324 22.0096 173.933 21.8322L173.374 23.0638ZM175.062 23.4444C175.966 23.4444 176.757 23.1174 177.396 22.4783L176.439 21.5217C176.054 21.9066 175.608 22.0916 175.062 22.0916V23.4444ZM177.415 22.4588C177.963 21.8645 178.755 20.804 179.779 19.3105L178.664 18.5455C177.64 20.0387 176.896 21.0262 176.42 21.5412L177.415 22.4588ZM178.814 19.468L182.462 22.22L183.277 21.14L179.629 18.388L178.814 19.468ZM182.286 21.3385C180.977 23.575 179.783 25.1474 178.708 26.1024L179.607 27.1136C180.837 26.0206 182.116 24.3077 183.453 22.0215L182.286 21.3385ZM178.709 26.1014C177.732 26.9657 176.551 27.4036 175.126 27.4036V28.7564C176.857 28.7564 178.364 28.213 179.606 27.1146L178.709 26.1014ZM175.126 27.4036C174.482 27.4036 173.885 27.2904 173.329 27.068L172.826 28.324C173.55 28.6136 174.319 28.7564 175.126 28.7564V27.4036ZM173.329 27.068C172.748 26.8355 171.894 26.3718 170.75 25.6516L170.029 26.7964C171.189 27.5268 172.127 28.0445 172.826 28.324L173.329 27.068ZM170.75 25.6516C169.601 24.928 168.754 24.435 168.237 24.2002L167.678 25.4318C168.1 25.6236 168.874 26.0693 170.029 26.7964L170.75 25.6516ZM168.306 24.236C167.78 23.9209 167.213 23.7556 166.614 23.7556V25.1084C166.953 25.1084 167.281 25.1991 167.609 25.396L168.306 24.236ZM166.614 23.7556C165.691 23.7556 164.895 24.1182 164.26 24.8052L165.255 25.7228C165.644 25.3005 166.085 25.1084 166.614 25.1084V23.7556ZM164.279 24.7857C163.718 25.347 162.919 26.3977 161.896 27.8895L163.011 28.6545C164.036 27.1596 164.773 26.205 165.236 25.7423L164.279 24.7857ZM162.861 27.732L159.213 24.98L158.398 26.06L162.046 28.812L162.861 27.732ZM216.376 1.2V0.52358H215.7V1.2H216.376ZM235.577 1.2H236.253V0.52358H235.577V1.2ZM235.577 7.6V8.27641H236.253V7.6H235.577ZM223.417 7.6V6.92358H222.74V7.6H223.417ZM223.417 19.44H222.74V20.1164H223.417V19.44ZM233.081 19.44H233.757V18.7636H233.081V19.44ZM233.081 25.84V26.5164H233.757V25.84H233.081ZM223.417 25.84V25.1636H222.74V25.84H223.417ZM223.417 39.6H222.74V40.2764H223.417V39.6ZM235.577 39.6H236.253V38.9236H235.577V39.6ZM235.577 46V46.6764H236.253V46H235.577ZM216.376 46H215.7V46.6764H216.376V46ZM216.376 1.87641H235.577V0.52358H216.376V1.87641ZM234.9 1.2V7.6H236.253V1.2H234.9ZM235.577 6.92358H223.417V8.27641H235.577V6.92358ZM222.74 7.6V19.44H224.093V7.6H222.74ZM223.417 20.1164H233.081V18.7636H223.417V20.1164ZM232.404 19.44V25.84H233.757V19.44H232.404ZM233.081 25.1636H223.417V26.5164H233.081V25.1636ZM222.74 25.84V39.6H224.093V25.84H222.74ZM223.417 40.2764H235.577V38.9236H223.417V40.2764ZM234.9 39.6V46H236.253V39.6H234.9ZM235.577 45.3236H216.376V46.6764H235.577V45.3236ZM217.053 46V1.2H215.7V46H217.053ZM251.723 43.76L251.222 44.2156L251.228 44.2215L251.723 43.76ZM251.723 3.44L251.228 2.97843L251.222 2.98444L251.723 3.44ZM267.147 3.44L266.646 3.89559L266.652 3.90153L267.147 3.44ZM269.835 16.304V16.9804H270.511V16.304H269.835ZM263.178 16.304H262.502V16.9804H263.178V16.304ZM263.178 29.296V28.6196H262.502V29.296H263.178ZM269.835 29.296H270.511V28.6196H269.835V29.296ZM267.147 43.76L266.652 43.2984L266.646 43.3044L267.147 43.76ZM259.466 45.9636C256.227 45.9636 253.847 45.0451 252.217 43.2985L251.228 44.2215C253.182 46.3149 255.965 47.3164 259.466 47.3164V45.9636ZM252.223 43.3044C250.621 41.5469 249.775 39.0215 249.775 35.632H248.422C248.422 39.2398 249.325 42.1331 251.222 44.2156L252.223 43.3044ZM249.775 35.632V11.568H248.422V35.632H249.775ZM249.775 11.568C249.775 8.1785 250.621 5.65314 252.223 3.89556L251.222 2.98444C249.325 5.06686 248.422 7.96017 248.422 11.568H249.775ZM252.217 3.90153C253.847 2.15491 256.227 1.23641 259.466 1.23641V-0.116419C255.965 -0.116419 253.182 0.885085 251.228 2.97847L252.217 3.90153ZM259.466 1.23641C262.707 1.23641 265.061 2.15519 266.646 3.89556L267.647 2.98444C265.734 0.88481 262.967 -0.116419 259.466 -0.116419V1.23641ZM266.652 3.90153C268.293 5.65938 269.158 8.18246 269.158 11.568H270.511C270.511 7.9562 269.584 5.06062 267.641 2.97847L266.652 3.90153ZM269.158 11.568V16.304H270.511V11.568H269.158ZM269.835 15.6276H263.178V16.9804H269.835V15.6276ZM263.855 16.304V11.12H262.502V16.304H263.855ZM263.855 11.12C263.855 9.65409 263.547 8.42856 262.815 7.56307C262.064 6.67595 260.968 6.28358 259.659 6.28358V7.63642C260.695 7.63642 261.359 7.93738 261.782 8.43692C262.223 8.95811 262.502 9.81257 262.502 11.12H263.855ZM259.659 6.28358C258.349 6.28358 257.253 6.67595 256.502 7.56307C255.77 8.42856 255.462 9.65409 255.462 11.12H256.815C256.815 9.81257 257.094 8.95811 257.535 8.43692C257.958 7.93738 258.622 7.63642 259.659 7.63642V6.28358ZM255.462 11.12V36.144H256.815V11.12H255.462ZM255.462 36.144C255.462 37.5906 255.771 38.8018 256.505 39.6569C257.257 40.5315 258.352 40.9164 259.659 40.9164V39.5636C258.618 39.5636 257.953 39.2658 257.531 38.7751C257.093 38.2648 256.815 37.4281 256.815 36.144H255.462ZM259.659 40.9164C260.965 40.9164 262.06 40.5315 262.812 39.6569C263.546 38.8018 263.855 37.5906 263.855 36.144H262.502C262.502 37.4281 262.224 38.2648 261.785 38.7751C261.364 39.2658 260.699 39.5636 259.659 39.5636V40.9164ZM263.855 36.144V29.296H262.502V36.144H263.855ZM263.178 29.9724H269.835V28.6196H263.178V29.9724ZM269.158 29.296V35.632H270.511V29.296H269.158ZM269.158 35.632C269.158 39.0175 268.293 41.5406 266.652 43.2985L267.641 44.2215C269.584 42.1394 270.511 39.2438 270.511 35.632H269.158ZM266.646 43.3044C265.061 45.0448 262.707 45.9636 259.466 45.9636V47.3164C262.967 47.3164 265.734 46.3152 267.647 44.2156L266.646 43.3044ZM286.332 43.696L286.826 43.2341L286.332 43.696ZM286.332 3.504L286.826 3.96591L286.332 3.504ZM302.203 3.504L301.709 3.96591L302.203 3.504ZM302.203 43.696L301.709 43.2341L302.203 43.696ZM294.267 45.9636C290.942 45.9636 288.498 45.0234 286.826 43.2341L285.837 44.1579C287.834 46.294 290.681 47.3164 294.267 47.3164V45.9636ZM286.826 43.2341C285.143 41.4338 284.256 38.8471 284.256 35.376H282.903C282.903 39.0729 283.851 42.0329 285.837 44.1579L286.826 43.2341ZM284.256 35.376V11.824H282.903V35.376H284.256ZM284.256 11.824C284.256 8.35294 285.143 5.76621 286.826 3.96591L285.837 3.04208C283.851 5.16712 282.903 8.12706 282.903 11.824H284.256ZM286.826 3.96591C288.498 2.17663 290.942 1.23641 294.267 1.23641V-0.116419C290.681 -0.116419 287.834 0.90603 285.837 3.04208L286.826 3.96591ZM294.267 1.23641C297.593 1.23641 300.037 2.17663 301.709 3.96591L302.698 3.04208C300.701 0.90603 297.854 -0.116419 294.267 -0.116419V1.23641ZM301.709 3.96591C303.392 5.76621 304.279 8.35294 304.279 11.824H305.632C305.632 8.12706 304.684 5.16712 302.698 3.04208L301.709 3.96591ZM304.279 11.824V35.376H305.632V11.824H304.279ZM304.279 35.376C304.279 38.8471 303.392 41.4338 301.709 43.2341L302.698 44.1579C304.684 42.0329 305.632 39.0729 305.632 35.376H304.279ZM301.709 43.2341C300.037 45.0234 297.593 45.9636 294.267 45.9636V47.3164C297.854 47.3164 300.701 46.294 302.698 44.1579L301.709 43.2341ZM294.267 40.9164C295.625 40.9164 296.755 40.4992 297.525 39.5668C298.275 38.6591 298.592 37.3722 298.592 35.824H297.239C297.239 37.2198 296.948 38.1409 296.482 38.7052C296.036 39.2448 295.342 39.5636 294.267 39.5636V40.9164ZM298.592 35.824V11.376H297.239V35.824H298.592ZM298.592 11.376C298.592 9.82782 298.275 8.5409 297.525 7.6332C296.755 6.70075 295.625 6.28358 294.267 6.28358V7.63642C295.342 7.63642 296.036 7.95525 296.482 8.4948C296.948 9.0591 297.239 9.98017 297.239 11.376H298.592ZM294.267 6.28358C292.91 6.28358 291.78 6.70075 291.01 7.6332C290.26 8.5409 289.943 9.82782 289.943 11.376H291.296C291.296 9.98017 291.587 9.0591 292.053 8.4948C292.499 7.95525 293.193 7.63642 294.267 7.63642V6.28358ZM289.943 11.376V35.824H291.296V11.376H289.943ZM289.943 35.824C289.943 37.3722 290.26 38.6591 291.01 39.5668C291.78 40.4992 292.91 40.9164 294.267 40.9164V39.5636C293.193 39.5636 292.499 39.2448 292.053 38.7052C291.587 38.1409 291.296 37.2198 291.296 35.824H289.943ZM321.566 46L322.213 46.1944L322.475 45.3236H321.566V46ZM319.262 46H318.585V46.6764H319.262V46ZM319.262 39.216V38.5396H318.585V39.216H319.262ZM326.046 39.216H326.722V38.5396H326.046V39.216ZM326.046 45.296L326.669 45.5578L326.722 45.4322V45.296H326.046ZM322.526 53.68V54.3564H322.975L323.149 53.9418L322.526 53.68ZM319.262 53.68L318.614 53.4856L318.352 54.3564H319.262V53.68ZM321.566 45.3236H319.262V46.6764H321.566V45.3236ZM319.938 46V39.216H318.585V46H319.938ZM319.262 39.8924H326.046V38.5396H319.262V39.8924ZM325.369 39.216V45.296H326.722V39.216H325.369ZM325.422 45.0341L321.902 53.4182L323.149 53.9418L326.669 45.5578L325.422 45.0341ZM322.526 53.0036H319.262V54.3564H322.526V53.0036ZM319.909 53.8744L322.213 46.1944L320.918 45.8056L318.614 53.4856L319.909 53.8744ZM3.032 107.76L2.52702 108.21L2.532 108.216L3.032 107.76ZM0.408 96.816V96.1396H-0.268417V96.816H0.408ZM7.064 96.816H7.74042V96.1396H7.064V96.816ZM13.4 103.216L12.8928 102.768L12.8909 102.771L13.4 103.216ZM13.08 94.832L12.4969 95.175L12.5015 95.1826L13.08 94.832ZM8.344 89.648L7.89646 90.1552L7.89992 90.1582L8.344 89.648ZM2.264 82.736L1.67155 83.0625L1.67445 83.0676L2.264 82.736ZM3.224 67.504L3.71853 67.9656L3.72352 67.9601L3.224 67.504ZM18.648 67.504L18.1376 67.9478L18.1427 67.9538L18.148 67.9596L18.648 67.504ZM21.272 77.68V78.3564H21.9484V77.68H21.272ZM14.616 77.68H13.9396V78.3564H14.616V77.68ZM13.72 72.048L13.1979 72.478L13.2043 72.4858L13.2109 72.4934L13.72 72.048ZM8.856 79.792L8.27753 80.1426L8.28136 80.1489L8.28533 80.1552L8.856 79.792ZM13.656 84.912L13.2119 85.4222L13.2122 85.4224L13.656 84.912ZM19.736 91.888L19.1385 92.205L19.736 91.888ZM18.648 107.696L18.1538 107.234L18.1485 107.24L18.648 107.696ZM10.776 109.964C7.48997 109.964 5.11611 109.043 3.532 107.304L2.532 108.216C4.44655 110.317 7.23536 111.316 10.776 111.316V109.964ZM3.53695 107.31C1.9339 105.511 1.08442 102.9 1.08442 99.376H-0.268417C-0.268417 103.105 0.631438 106.083 2.52705 108.21L3.53695 107.31ZM1.08442 99.376V96.816H-0.268417V99.376H1.08442ZM0.408 97.4924H7.064V96.1396H0.408V97.4924ZM6.38758 96.816V99.888H7.74042V96.816H6.38758ZM6.38758 99.888C6.38758 101.417 6.70545 102.689 7.45761 103.587C8.22895 104.507 9.35732 104.916 10.712 104.916V103.564C9.63468 103.564 8.93905 103.248 8.49439 102.717C8.03055 102.164 7.74042 101.261 7.74042 99.888H6.38758ZM10.712 104.916C12.0362 104.916 13.1456 104.534 13.9091 103.661L12.8909 102.771C12.4597 103.263 11.7772 103.564 10.712 103.564V104.916ZM13.9072 103.664C14.707 102.757 15.0364 101.406 15.0364 99.76H13.6836C13.6836 101.271 13.373 102.224 12.8928 102.768L13.9072 103.664ZM15.0364 99.76C15.0364 97.7768 14.5845 96.0093 13.6585 94.4814L12.5015 95.1826C13.2822 96.4707 13.6836 97.9886 13.6836 99.76H15.0364ZM13.663 94.489C12.754 92.9438 11.11 91.1587 8.78808 89.1378L7.89992 90.1582C10.186 92.148 11.6993 93.8189 12.497 95.175L13.663 94.489ZM8.79153 89.1408C5.91523 86.6029 3.95211 84.3574 2.85355 82.4044L1.67445 83.0676C2.87989 85.2106 4.9701 87.5731 7.89647 90.1552L8.79153 89.1408ZM2.85643 82.4096C1.76441 80.4277 1.21242 78.1951 1.21242 75.696H-0.140417C-0.140417 78.4022 0.459587 80.8629 1.67157 83.0624L2.85643 82.4096ZM1.21242 75.696C1.21242 72.2652 2.07915 69.722 3.7185 67.9655L2.7295 67.0425C0.784848 69.126 -0.140417 72.0441 -0.140417 75.696H1.21242ZM3.72352 67.9601C5.3532 66.1752 7.75134 65.2364 11.032 65.2364V63.8836C7.48599 63.8836 4.6788 64.9075 2.72448 67.0479L3.72352 67.9601ZM11.032 65.2364C14.2687 65.2364 16.595 66.1739 18.1376 67.9478L19.1584 67.0602C17.2876 64.9087 14.5366 63.8836 11.032 63.8836V65.2364ZM18.148 67.9596C19.7456 69.7131 20.5956 72.299 20.5956 75.824H21.9484C21.9484 72.0957 21.049 69.1349 19.148 67.0484L18.148 67.9596ZM20.5956 75.824V77.68H21.9484V75.824H20.5956ZM21.272 77.0036H14.616V78.3564H21.272V77.0036ZM15.2924 77.68V75.376H13.9396V77.68H15.2924ZM15.2924 75.376C15.2924 73.7808 14.9875 72.4694 14.2291 71.6026L13.2109 72.4934C13.6472 72.9919 13.9396 73.8992 13.9396 75.376H15.2924ZM14.2421 71.618C13.4875 70.7017 12.4 70.2836 11.096 70.2836V71.6364C12.096 71.6364 12.7578 71.9437 13.1979 72.478L14.2421 71.618ZM11.096 70.2836C9.77932 70.2836 8.68166 70.691 7.93318 71.6028C7.20568 72.489 6.89958 73.7433 6.89958 75.248H8.25242C8.25242 73.8941 8.53299 73.0043 8.97882 72.4612C9.40368 71.9436 10.066 71.6364 11.096 71.6364V70.2836ZM6.89958 75.248C6.89958 76.9949 7.36117 78.6306 8.27753 80.1426L9.43447 79.4414C8.64416 78.1374 8.25242 76.7437 8.25242 75.248H6.89958ZM8.28533 80.1552C9.23398 81.6459 10.8924 83.4033 13.2119 85.4222L14.1001 84.4018C11.8116 82.41 10.27 80.7541 9.42667 79.4288L8.28533 80.1552ZM13.2122 85.4224C16.1288 87.9586 18.0852 90.22 19.1385 92.205L20.3335 91.571C19.1681 89.3746 17.0712 86.9854 14.0999 84.4016L13.2122 85.4224ZM19.1385 92.205C20.187 94.1811 20.7236 96.5216 20.7236 99.248H22.0764C22.0764 96.3424 21.5036 93.7762 20.3335 91.571L19.1385 92.205ZM20.7236 99.248C20.7236 102.809 19.8342 105.437 18.1539 107.234L19.1421 108.158C21.1311 106.03 22.0764 103.025 22.0764 99.248H20.7236ZM18.1485 107.24C16.5204 109.023 14.1023 109.964 10.776 109.964V111.316C14.3617 111.316 17.1916 110.294 19.1475 108.152L18.1485 107.24ZM35.3565 65.2V64.5236H34.6801V65.2H35.3565ZM54.5565 65.2H55.2329V64.5236H54.5565V65.2ZM54.5565 71.6V72.2764H55.2329V71.6H54.5565ZM42.3965 71.6V70.9236H41.7201V71.6H42.3965ZM42.3965 83.44H41.7201V84.1164H42.3965V83.44ZM52.0605 83.44H52.7369V82.7636H52.0605V83.44ZM52.0605 89.84V90.5164H52.7369V89.84H52.0605ZM42.3965 89.84V89.1636H41.7201V89.84H42.3965ZM42.3965 103.6H41.7201V104.276H42.3965V103.6ZM54.5565 103.6H55.2329V102.924H54.5565V103.6ZM54.5565 110V110.676H55.2329V110H54.5565ZM35.3565 110H34.6801V110.676H35.3565V110ZM35.3565 65.8764H54.5565V64.5236H35.3565V65.8764ZM53.8801 65.2V71.6H55.2329V65.2H53.8801ZM54.5565 70.9236H42.3965V72.2764H54.5565V70.9236ZM41.7201 71.6V83.44H43.0729V71.6H41.7201ZM42.3965 84.1164H52.0605V82.7636H42.3965V84.1164ZM51.3841 83.44V89.84H52.7369V83.44H51.3841ZM52.0605 89.1636H42.3965V90.5164H52.0605V89.1636ZM41.7201 89.84V103.6H43.0729V89.84H41.7201ZM42.3965 104.276H54.5565V102.924H42.3965V104.276ZM53.8801 103.6V110H55.2329V103.6H53.8801ZM54.5565 109.324H35.3565V110.676H54.5565V109.324ZM36.0329 110V65.2H34.6801V110H36.0329ZM68.5265 65.2V64.5236H67.8501V65.2H68.5265ZM75.5665 65.2H76.2429V64.5236H75.5665V65.2ZM75.5665 103.6H74.8901V104.276H75.5665V103.6ZM87.1505 103.6H87.8269V102.924H87.1505V103.6ZM87.1505 110V110.676H87.8269V110H87.1505ZM68.5265 110H67.8501V110.676H68.5265V110ZM68.5265 65.8764H75.5665V64.5236H68.5265V65.8764ZM74.8901 65.2V103.6H76.2429V65.2H74.8901ZM75.5665 104.276H87.1505V102.924H75.5665V104.276ZM86.4741 103.6V110H87.8269V103.6H86.4741ZM87.1505 109.324H68.5265V110.676H87.1505V109.324ZM69.2029 110V65.2H67.8501V110H69.2029ZM100.447 65.2V64.5236H99.7701V65.2H100.447ZM119.071 65.2H119.747V64.5236H119.071V65.2ZM119.071 71.6V72.2764H119.747V71.6H119.071ZM107.487 71.6V70.9236H106.81V71.6H107.487ZM107.487 84.08H106.81V84.7564H107.487V84.08ZM116.575 84.08H117.251V83.4036H116.575V84.08ZM116.575 90.48V91.1564H117.251V90.48H116.575ZM107.487 90.48V89.8036H106.81V90.48H107.487ZM107.487 110V110.676H108.163V110H107.487ZM100.447 110H99.7701V110.676H100.447V110ZM100.447 65.8764H119.071V64.5236H100.447V65.8764ZM118.394 65.2V71.6H119.747V65.2H118.394ZM119.071 70.9236H107.487V72.2764H119.071V70.9236ZM106.81 71.6V84.08H108.163V71.6H106.81ZM107.487 84.7564H116.575V83.4036H107.487V84.7564ZM115.898 84.08V90.48H117.251V84.08H115.898ZM116.575 89.8036H107.487V91.1564H116.575V89.8036ZM106.81 90.48V110H108.163V90.48H106.81ZM107.487 109.324H100.447V110.676H107.487V109.324ZM101.123 110V65.2H99.7701V110H101.123ZM131.03 84.4V83.7236H130.354V84.4H131.03ZM145.11 84.4H145.786V83.7236H145.11V84.4ZM145.11 90.8V91.4764H145.786V90.8H145.11ZM131.03 90.8H130.354V91.4764H131.03V90.8ZM131.03 85.0764H145.11V83.7236H131.03V85.0764ZM144.434 84.4V90.8H145.786V84.4H144.434ZM145.11 90.1236H131.03V91.4764H145.11V90.1236ZM131.706 90.8V84.4H130.354V90.8H131.706ZM157.56 65.2V64.5236H156.812L156.887 65.2683L157.56 65.2ZM164.344 65.2L165.018 65.1386L164.962 64.5236H164.344V65.2ZM167.48 99.632L166.806 99.6934L166.862 100.308H167.48V99.632ZM167.608 99.632V100.308H168.222L168.281 99.6971L167.608 99.632ZM170.936 65.2V64.5236H170.322L170.263 65.1349L170.936 65.2ZM178.616 65.2L179.289 65.1349L179.23 64.5236H178.616V65.2ZM181.944 99.632L181.271 99.6971L181.33 100.308H181.944V99.632ZM182.072 99.632V100.308H182.69L182.746 99.6934L182.072 99.632ZM185.208 65.2V64.5236H184.59L184.534 65.1386L185.208 65.2ZM191.288 65.2L191.961 65.2683L192.036 64.5236H191.288V65.2ZM186.744 110V110.676H187.355L187.417 110.068L186.744 110ZM177.976 110L177.303 110.071L177.367 110.676H177.976V110ZM174.776 79.792L175.449 79.7207L175.385 79.1156H174.776V79.792ZM174.648 79.792V79.1156H174.039L173.975 79.7207L174.648 79.792ZM171.448 110V110.676H172.057L172.121 110.071L171.448 110ZM162.104 110L161.431 110.068L161.493 110.676H162.104V110ZM157.56 65.8764H164.344V64.5236H157.56V65.8764ZM163.67 65.2614L166.806 99.6934L168.154 99.5706L165.018 65.1386L163.67 65.2614ZM167.48 100.308H167.608V98.9556H167.48V100.308ZM168.281 99.6971L171.609 65.2651L170.263 65.1349L166.935 99.5669L168.281 99.6971ZM170.936 65.8764H178.616V64.5236H170.936V65.8764ZM177.943 65.2651L181.271 99.6971L182.617 99.5669L179.289 65.1349L177.943 65.2651ZM181.944 100.308H182.072V98.9556H181.944V100.308ZM182.746 99.6934L185.882 65.2614L184.534 65.1386L181.398 99.5706L182.746 99.6934ZM185.208 65.8764H191.288V64.5236H185.208V65.8764ZM190.615 65.1317L186.071 109.932L187.417 110.068L191.961 65.2683L190.615 65.1317ZM186.744 109.324H177.976V110.676H186.744V109.324ZM178.649 109.929L175.449 79.7207L174.103 79.8633L177.303 110.071L178.649 109.929ZM174.776 79.1156H174.648V80.4684H174.776V79.1156ZM173.975 79.7207L170.775 109.929L172.121 110.071L175.321 79.8633L173.975 79.7207ZM171.448 109.324H162.104V110.676H171.448V109.324ZM162.777 109.932L158.233 65.1317L156.887 65.2683L161.431 110.068L162.777 109.932ZM209.334 65.2V64.5236H208.759L208.666 65.0913L209.334 65.2ZM218.87 65.2L219.538 65.0913L219.445 64.5236H218.87V65.2ZM226.166 110V110.676H226.961L226.834 109.891L226.166 110ZM219.126 110L218.456 110.096L218.54 110.676H219.126V110ZM217.846 101.104L218.516 101.008L217.17 101.104H217.846ZM217.846 101.232V101.908H218.522V101.232H217.846ZM209.846 101.232V100.556H209.261L209.177 101.134L209.846 101.232ZM208.566 110V110.676H209.151L209.235 110.098L208.566 110ZM202.038 110L201.37 109.891L201.243 110.676H202.038V110ZM217.014 95.152V95.8284H217.793L217.684 95.0572L217.014 95.152ZM213.878 73.008L214.548 72.9132L214.465 72.3316H213.878V73.008ZM213.75 73.008V72.3316H213.161L213.08 72.9151L213.75 73.008ZM210.678 95.152L210.008 95.0591L209.901 95.8284H210.678V95.152ZM209.334 65.8764H218.87V64.5236H209.334V65.8764ZM218.202 65.3087L225.498 110.109L226.834 109.891L219.538 65.0913L218.202 65.3087ZM226.166 109.324H219.126V110.676H226.166V109.324ZM219.796 109.904L218.516 101.008L217.176 101.2L218.456 110.096L219.796 109.904ZM217.17 101.104V101.232H218.522V101.104H217.17ZM217.846 100.556H209.846V101.908H217.846V100.556ZM209.177 101.134L207.897 109.902L209.235 110.098L210.515 101.33L209.177 101.134ZM208.566 109.324H202.038V110.676H208.566V109.324ZM202.706 110.109L210.002 65.3087L208.666 65.0913L201.37 109.891L202.706 110.109ZM217.684 95.0572L214.548 72.9132L213.208 73.1028L216.344 95.2468L217.684 95.0572ZM213.878 72.3316H213.75V73.6844H213.878V72.3316ZM213.08 72.9151L210.008 95.0591L211.348 95.2449L214.42 73.1009L213.08 72.9151ZM210.678 95.8284H217.014V94.4756H210.678V95.8284ZM242.068 71.6H242.744V70.9236H242.068V71.6ZM234.708 71.6H234.032V72.2764H234.708V71.6ZM234.708 65.2V64.5236H234.032V65.2H234.708ZM256.468 65.2H257.144V64.5236H256.468V65.2ZM256.468 71.6V72.2764H257.144V71.6H256.468ZM249.108 71.6V70.9236H248.432V71.6H249.108ZM249.108 110V110.676H249.784V110H249.108ZM242.068 110H241.392V110.676H242.068V110ZM242.068 70.9236H234.708V72.2764H242.068V70.9236ZM235.384 71.6V65.2H234.032V71.6H235.384ZM234.708 65.8764H256.468V64.5236H234.708V65.8764ZM255.792 65.2V71.6H257.144V65.2H255.792ZM256.468 70.9236H249.108V72.2764H256.468V70.9236ZM248.432 71.6V110H249.784V71.6H248.432ZM249.108 109.324H242.068V110.676H249.108V109.324ZM242.744 110V71.6H241.392V110H242.744ZM269.796 65.2V64.5236H269.12V65.2H269.796ZM288.996 65.2H289.673V64.5236H288.996V65.2ZM288.996 71.6V72.2764H289.673V71.6H288.996ZM276.836 71.6V70.9236H276.16V71.6H276.836ZM276.836 83.44H276.16V84.1164H276.836V83.44ZM286.5 83.44H287.177V82.7636H286.5V83.44ZM286.5 89.84V90.5164H287.177V89.84H286.5ZM276.836 89.84V89.1636H276.16V89.84H276.836ZM276.836 103.6H276.16V104.276H276.836V103.6ZM288.996 103.6H289.673V102.924H288.996V103.6ZM288.996 110V110.676H289.673V110H288.996ZM269.796 110H269.12V110.676H269.796V110ZM269.796 65.8764H288.996V64.5236H269.796V65.8764ZM288.32 65.2V71.6H289.673V65.2H288.32ZM288.996 70.9236H276.836V72.2764H288.996V70.9236ZM276.16 71.6V83.44H277.513V71.6H276.16ZM276.836 84.1164H286.5V82.7636H276.836V84.1164ZM285.824 83.44V89.84H287.177V83.44H285.824ZM286.5 89.1636H276.836V90.5164H286.5V89.1636ZM276.16 89.84V103.6H277.513V89.84H276.16ZM276.836 104.276H288.996V102.924H276.836V104.276ZM288.32 103.6V110H289.673V103.6H288.32ZM288.996 109.324H269.796V110.676H288.996V109.324ZM270.473 110V65.2H269.12V110H270.473ZM302.966 65.2V64.5236H302.29V65.2H302.966ZM321.335 67.76L320.85 68.2322L320.856 68.2383L321.335 67.76ZM319.223 87.088L318.97 86.4606L318.546 86.6312V87.088H319.223ZM319.223 87.216H318.546V87.7193L319.028 87.8639L319.223 87.216ZM322.806 90.352L322.186 90.6205L322.189 90.6275L322.192 90.6344L322.806 90.352ZM324.022 107.696L323.35 107.767L323.35 107.771L324.022 107.696ZM324.663 110V110.676H325.703L325.281 109.725L324.663 110ZM317.495 110L316.857 110.225L317.016 110.676H317.495V110ZM315.831 92.016L315.3 92.4351L315.306 92.4435L315.313 92.4517L315.831 92.016ZM310.007 90.8V90.1236H309.33V90.8H310.007ZM310.007 110V110.676H310.683V110H310.007ZM302.966 110H302.29V110.676H302.966V110ZM315.703 83.312L315.224 82.8337L315.217 82.8409L315.21 82.8484L315.703 83.312ZM315.895 72.688L315.357 73.0989L315.365 73.1086L315.372 73.118L315.895 72.688ZM310.007 71.6V70.9236H309.33V71.6H310.007ZM310.007 84.4H309.33V85.0764H310.007V84.4ZM302.966 65.8764H313.398V64.5236H302.966V65.8764ZM313.398 65.8764C316.937 65.8764 319.367 66.7107 320.85 68.2322L321.819 67.2878C319.974 65.396 317.114 64.5236 313.398 64.5236V65.8764ZM320.856 68.2383C322.343 69.7251 323.154 72.0981 323.154 75.504H324.507C324.507 71.9125 323.654 69.1229 321.813 67.2817L320.856 68.2383ZM323.154 75.504V78.256H324.507V75.504H323.154ZM323.154 78.256C323.154 80.5135 322.78 82.2946 322.079 83.6391C321.385 84.9687 320.356 85.9023 318.97 86.4606L319.475 87.7154C321.161 87.0364 322.436 85.8793 323.278 84.2649C324.113 82.6654 324.507 80.6492 324.507 78.256H323.154ZM318.546 87.088V87.216H319.899V87.088H318.546ZM319.028 87.8639C320.552 88.3209 321.585 89.2325 322.186 90.6205L323.427 90.0835C322.662 88.3142 321.307 87.1351 319.417 86.5681L319.028 87.8639ZM322.192 90.6344C322.861 92.0904 323.218 94.094 323.218 96.688H324.571C324.571 93.9913 324.203 91.7709 323.421 90.0696L322.192 90.6344ZM323.218 96.688V104.56H324.571V96.688H323.218ZM323.218 104.56C323.218 105.852 323.261 106.923 323.35 107.767L324.695 107.625C324.613 106.847 324.571 105.828 324.571 104.56H323.218ZM323.35 107.771C323.444 108.614 323.677 109.449 324.044 110.275L325.281 109.725C324.965 109.015 324.772 108.314 324.695 107.621L323.35 107.771ZM324.663 109.324H317.495V110.676H324.663V109.324ZM318.132 109.775C317.889 109.085 317.731 108.449 317.653 107.863L316.312 108.041C316.405 108.735 316.588 109.464 316.857 110.225L318.132 109.775ZM317.653 107.863C317.574 107.273 317.531 106.162 317.531 104.496H316.178C316.178 106.158 316.22 107.351 316.312 108.041L317.653 107.863ZM317.531 104.496V96.304H316.178V104.496H317.531ZM317.531 96.304C317.531 94.2248 317.193 92.5842 316.348 91.5803L315.313 92.4517C315.833 93.0692 316.178 94.2872 316.178 96.304H317.531ZM316.361 91.5969C315.534 90.549 314.148 90.1236 312.439 90.1236V91.4764C313.972 91.4764 314.847 91.8617 315.3 92.4351L316.361 91.5969ZM312.439 90.1236H310.007V91.4764H312.439V90.1236ZM309.33 90.8V110H310.683V90.8H309.33ZM310.007 109.324H302.966V110.676H310.007V109.324ZM303.643 110V65.2H302.29V110H303.643ZM312.566 85.0764C314.082 85.0764 315.339 84.685 316.195 83.7756L315.21 82.8484C314.701 83.3896 313.867 83.7236 312.566 83.7236V85.0764ZM316.181 83.7903C317.095 82.876 317.467 81.4374 317.467 79.664H316.114C316.114 81.3039 315.761 82.2973 315.224 82.8337L316.181 83.7903ZM317.467 79.664V76.208H316.114V79.664H317.467ZM317.467 76.208C317.467 74.533 317.164 73.1654 316.417 72.258L315.372 73.118C315.82 73.6612 316.114 74.6404 316.114 76.208H317.467ZM316.432 72.2771C315.707 71.3295 314.574 70.9236 313.207 70.9236V72.2764C314.314 72.2764 314.972 72.5958 315.357 73.0989L316.432 72.2771ZM313.207 70.9236H310.007V72.2764H313.207V70.9236ZM309.33 71.6V84.4H310.683V71.6H309.33ZM310.007 85.0764H312.566V83.7236H310.007V85.0764ZM338.699 65.2V64.5236H338.023V65.2H338.699ZM345.739 65.2H346.415V64.5236H345.739V65.2ZM345.739 110V110.676H346.415V110H345.739ZM338.699 110H338.023V110.676H338.699V110ZM338.699 65.8764H345.739V64.5236H338.699V65.8764ZM345.063 65.2V110H346.415V65.2H345.063ZM345.739 109.324H338.699V110.676H345.739V109.324ZM339.375 110V65.2H338.023V110H339.375ZM360.931 65.2V64.5236H360.255V65.2H360.931ZM369.763 65.2L370.419 65.0326L370.289 64.5236H369.763V65.2ZM376.612 92.016L375.956 92.1834L376.086 92.6924H376.612V92.016ZM376.74 92.016V92.6924H377.416V92.016H376.74ZM376.74 65.2V64.5236H376.063V65.2H376.74ZM383.012 65.2H383.688V64.5236H383.012V65.2ZM383.012 110V110.676H383.688V110H383.012ZM375.779 110L375.125 110.169L375.256 110.676H375.779V110ZM367.331 77.296L367.986 77.1268L367.855 76.6196H367.331V77.296ZM367.203 77.296V76.6196H366.527V77.296H367.203ZM367.203 110V110.676H367.88V110H367.203ZM360.931 110H360.255V110.676H360.931V110ZM360.931 65.8764H369.763V64.5236H360.931V65.8764ZM369.108 65.3674L375.956 92.1834L377.267 91.8486L370.419 65.0326L369.108 65.3674ZM376.612 92.6924H376.74V91.3396H376.612V92.6924ZM377.416 92.016V65.2H376.063V92.016H377.416ZM376.74 65.8764H383.012V64.5236H376.74V65.8764ZM382.335 65.2V110H383.688V65.2H382.335ZM383.012 109.324H375.779V110.676H383.012V109.324ZM376.434 109.831L367.986 77.1268L366.677 77.4652L375.125 110.169L376.434 109.831ZM367.331 76.6196H367.203V77.9724H367.331V76.6196ZM366.527 77.296V110H367.88V77.296H366.527ZM367.203 109.324H360.931V110.676H367.203V109.324ZM361.608 110V65.2H360.255V110H361.608ZM400.34 107.76L399.84 108.216L399.846 108.222L400.34 107.76ZM400.34 67.504L400.835 67.9656L400.84 67.9601L400.34 67.504ZM415.956 67.504L415.456 67.9601L415.462 67.9655L415.956 67.504ZM418.644 79.664V80.3404H419.32V79.664H418.644ZM411.988 79.664H411.312V80.3404H411.988V79.664ZM411.988 91.12H412.664V90.4436H411.988V91.12ZM408.468 91.12H407.792V91.7964H408.468V91.12ZM408.468 84.72V84.0436H407.792V84.72H408.468ZM418.644 84.72H419.32V84.0436H418.644V84.72ZM415.956 107.76L416.451 108.222L416.456 108.216L415.956 107.76ZM408.148 109.964C404.863 109.964 402.463 109.043 400.835 107.298L399.846 108.222C401.801 110.317 404.606 111.316 408.148 111.316V109.964ZM400.84 107.304C399.197 105.505 398.328 102.896 398.328 99.376H396.976C396.976 103.109 397.899 106.089 399.84 108.216L400.84 107.304ZM398.328 99.376V75.824H396.976V99.376H398.328ZM398.328 75.824C398.328 72.3028 399.198 69.7192 400.835 67.9655L399.846 67.0425C397.898 69.1288 396.976 72.0919 396.976 75.824H398.328ZM400.84 67.9601C402.469 66.1752 404.867 65.2364 408.148 65.2364V63.8836C404.602 63.8836 401.795 64.9075 399.84 67.0479L400.84 67.9601ZM408.148 65.2364C411.429 65.2364 413.827 66.1752 415.456 67.9601L416.456 67.0479C414.501 64.9075 411.694 63.8836 408.148 63.8836V65.2364ZM415.462 67.9655C417.098 69.7192 417.968 72.3028 417.968 75.824H419.32C419.32 72.0919 418.398 69.1288 416.451 67.0425L415.462 67.9655ZM417.968 75.824V79.664H419.32V75.824H417.968ZM418.644 78.9876H411.988V80.3404H418.644V78.9876ZM412.664 79.664V75.376H411.312V79.664H412.664ZM412.664 75.376C412.664 73.8278 412.347 72.5409 411.598 71.6332C410.827 70.7008 409.698 70.2836 408.34 70.2836V71.6364C409.414 71.6364 410.109 71.9552 410.555 72.4948C411.021 73.0591 411.312 73.9802 411.312 75.376H412.664ZM408.34 70.2836C406.982 70.2836 405.853 70.7008 405.083 71.6332C404.333 72.5409 404.016 73.8278 404.016 75.376H405.368C405.368 73.9802 405.659 73.0591 406.125 72.4948C406.571 71.9552 407.266 71.6364 408.34 71.6364V70.2836ZM404.016 75.376V99.888H405.368V75.376H404.016ZM404.016 99.888C404.016 101.417 404.333 102.689 405.086 103.587C405.857 104.507 406.985 104.916 408.34 104.916V103.564C407.263 103.564 406.567 103.248 406.122 102.717C405.659 102.164 405.368 101.261 405.368 99.888H404.016ZM408.34 104.916C409.695 104.916 410.823 104.507 411.594 103.587C412.347 102.689 412.664 101.417 412.664 99.888H411.312C411.312 101.261 411.021 102.164 410.558 102.717C410.113 103.248 409.417 103.564 408.34 103.564V104.916ZM412.664 99.888V91.12H411.312V99.888H412.664ZM411.988 90.4436H408.468V91.7964H411.988V90.4436ZM409.144 91.12V84.72H407.792V91.12H409.144ZM408.468 85.3964H418.644V84.0436H408.468V85.3964ZM417.968 84.72V99.376H419.32V84.72H417.968ZM417.968 99.376C417.968 102.896 417.099 105.505 415.456 107.304L416.456 108.216C418.397 106.089 419.32 103.109 419.32 99.376H417.968ZM415.462 107.298C413.833 109.043 411.433 109.964 408.148 109.964V111.316C411.69 111.316 414.495 110.317 416.451 108.222L415.462 107.298ZM435.388 110L436.036 110.194L436.297 109.324H435.388V110ZM433.084 110H432.408V110.676H433.084V110ZM433.084 103.216V102.54H432.408V103.216H433.084ZM439.868 103.216H440.544V102.54H439.868V103.216ZM439.868 109.296L440.492 109.558L440.544 109.432V109.296H439.868ZM436.348 117.68V118.356H436.798L436.972 117.942L436.348 117.68ZM433.084 117.68L432.436 117.486L432.175 118.356H433.084V117.68ZM435.388 109.324H433.084V110.676H435.388V109.324ZM433.76 110V103.216H432.408V110H433.76ZM433.084 103.892H439.868V102.54H433.084V103.892ZM439.192 103.216V109.296H440.544V103.216H439.192ZM439.244 109.034L435.724 117.418L436.972 117.942L440.492 109.558L439.244 109.034ZM436.348 117.004H433.084V118.356H436.348V117.004ZM433.732 117.874L436.036 110.194L434.74 109.806L432.436 117.486L433.732 117.874ZM3.864 171.696L4.35814 171.234L3.864 171.696ZM3.864 131.504L4.35814 131.966L3.864 131.504ZM19.736 131.504L19.2419 131.966L19.736 131.504ZM19.736 171.696L19.2419 171.234L19.736 171.696ZM11.8 173.964C8.47459 173.964 6.03073 173.023 4.35814 171.234L3.36986 172.158C5.36661 174.294 8.21341 175.316 11.8 175.316V173.964ZM4.35814 171.234C2.67526 169.434 1.78842 166.847 1.78842 163.376H0.435583C0.435583 167.073 1.38341 170.033 3.36986 172.158L4.35814 171.234ZM1.78842 163.376V139.824H0.435583V163.376H1.78842ZM1.78842 139.824C1.78842 136.353 2.67526 133.766 4.35814 131.966L3.36986 131.042C1.38341 133.167 0.435583 136.127 0.435583 139.824H1.78842ZM4.35814 131.966C6.03073 130.177 8.47459 129.236 11.8 129.236V127.884C8.21341 127.884 5.36661 128.906 3.36986 131.042L4.35814 131.966ZM11.8 129.236C15.1254 129.236 17.5693 130.177 19.2419 131.966L20.2301 131.042C18.2334 128.906 15.3866 127.884 11.8 127.884V129.236ZM19.2419 131.966C20.9247 133.766 21.8116 136.353 21.8116 139.824H23.1644C23.1644 136.127 22.2166 133.167 20.2301 131.042L19.2419 131.966ZM21.8116 139.824V163.376H23.1644V139.824H21.8116ZM21.8116 163.376C21.8116 166.847 20.9247 169.434 19.2419 171.234L20.2301 172.158C22.2166 170.033 23.1644 167.073 23.1644 163.376H21.8116ZM19.2419 171.234C17.5693 173.023 15.1254 173.964 11.8 173.964V175.316C15.3866 175.316 18.2334 174.294 20.2301 172.158L19.2419 171.234ZM11.8 168.916C13.1579 168.916 14.2872 168.499 15.0575 167.567C15.8073 166.659 16.1244 165.372 16.1244 163.824H14.7716C14.7716 165.22 14.4807 166.141 14.0145 166.705C13.5688 167.245 12.8741 167.564 11.8 167.564V168.916ZM16.1244 163.824V139.376H14.7716V163.824H16.1244ZM16.1244 139.376C16.1244 137.828 15.8073 136.541 15.0575 135.633C14.2872 134.701 13.1579 134.284 11.8 134.284V135.636C12.8741 135.636 13.5688 135.955 14.0145 136.495C14.4807 137.059 14.7716 137.98 14.7716 139.376H16.1244ZM11.8 134.284C10.4421 134.284 9.31279 134.701 8.54251 135.633C7.79267 136.541 7.47558 137.828 7.47558 139.376H8.82842C8.82842 137.98 9.11933 137.059 9.58549 136.495C10.0312 135.955 10.7259 135.636 11.8 135.636V134.284ZM7.47558 139.376V163.824H8.82842V139.376H7.47558ZM7.47558 163.824C7.47558 165.372 7.79267 166.659 8.54251 167.567C9.31279 168.499 10.4421 168.916 11.8 168.916V167.564C10.7259 167.564 10.0312 167.245 9.58549 166.705C9.11933 166.141 8.82842 165.22 8.82842 163.824H7.47558ZM37.169 129.2V128.524H36.4926V129.2H37.169ZM55.537 131.76L55.0526 132.232L55.0587 132.238L55.537 131.76ZM53.425 151.088L53.1723 150.461L52.7486 150.631V151.088H53.425ZM53.425 151.216H52.7486V151.719L53.2306 151.864L53.425 151.216ZM57.009 154.352L56.3881 154.62L56.3912 154.627L56.3944 154.634L57.009 154.352ZM58.225 171.696L57.5523 171.767L57.5527 171.771L58.225 171.696ZM58.865 174V174.676H59.9058L59.4831 173.725L58.865 174ZM51.697 174L51.0591 174.225L51.2184 174.676H51.697V174ZM50.033 156.016L49.5021 156.435L49.5087 156.444L49.5156 156.452L50.033 156.016ZM44.209 154.8V154.124H43.5326V154.8H44.209ZM44.209 174V174.676H44.8854V174H44.209ZM37.169 174H36.4926V174.676H37.169V174ZM49.905 147.312L49.4267 146.834L49.4195 146.841L49.4124 146.848L49.905 147.312ZM50.097 136.688L49.5597 137.099L49.5671 137.109L49.5749 137.118L50.097 136.688ZM44.209 135.6V134.924H43.5326V135.6H44.209ZM44.209 148.4H43.5326V149.076H44.209V148.4ZM37.169 129.876H47.601V128.524H37.169V129.876ZM47.601 129.876C51.1391 129.876 53.5692 130.711 55.0527 132.232L56.0213 131.288C54.1768 129.396 51.3162 128.524 47.601 128.524V129.876ZM55.0587 132.238C56.5455 133.725 57.3566 136.098 57.3566 139.504H58.7094C58.7094 135.913 57.8565 133.123 56.0153 131.282L55.0587 132.238ZM57.3566 139.504V142.256H58.7094V139.504H57.3566ZM57.3566 142.256C57.3566 144.514 56.9828 146.295 56.2813 147.639C55.5876 148.969 54.5584 149.902 53.1723 150.461L53.6777 151.715C55.3636 151.036 56.6384 149.879 57.4807 148.265C58.3152 146.665 58.7094 144.649 58.7094 142.256H57.3566ZM52.7486 151.088V151.216H54.1014V151.088H52.7486ZM53.2306 151.864C54.754 152.321 55.7879 153.232 56.3881 154.62L57.6299 154.084C56.8647 152.314 55.5093 151.135 53.6194 150.568L53.2306 151.864ZM56.3944 154.634C57.0633 156.09 57.4206 158.094 57.4206 160.688H58.7734C58.7734 157.991 58.4053 155.771 57.6236 154.07L56.3944 154.634ZM57.4206 160.688V168.56H58.7734V160.688H57.4206ZM57.4206 168.56C57.4206 169.852 57.4635 170.923 57.5523 171.767L58.8977 171.625C58.8158 170.847 58.7734 169.828 58.7734 168.56H57.4206ZM57.5527 171.771C57.6464 172.614 57.8798 173.449 58.2469 174.275L59.4831 173.725C59.1675 173.015 58.9743 172.314 58.8973 171.621L57.5527 171.771ZM58.865 173.324H51.697V174.676H58.865V173.324ZM52.3349 173.775C52.0915 173.085 51.9336 172.449 51.8555 171.863L50.5145 172.041C50.6071 172.735 50.7905 173.464 51.0591 174.225L52.3349 173.775ZM51.8555 171.863C51.7768 171.273 51.7334 170.162 51.7334 168.496H50.3806C50.3806 170.158 50.4225 171.351 50.5145 172.041L51.8555 171.863ZM51.7334 168.496V160.304H50.3806V168.496H51.7334ZM51.7334 160.304C51.7334 158.225 51.3958 156.584 50.5504 155.58L49.5156 156.452C50.0356 157.069 50.3806 158.287 50.3806 160.304H51.7334ZM50.5639 155.597C49.7366 154.549 48.3504 154.124 46.641 154.124V155.476C48.1742 155.476 49.0494 155.862 49.5021 156.435L50.5639 155.597ZM46.641 154.124H44.209V155.476H46.641V154.124ZM43.5326 154.8V174H44.8854V154.8H43.5326ZM44.209 173.324H37.169V174.676H44.209V173.324ZM37.8454 174V129.2H36.4926V174H37.8454ZM46.769 149.076C48.2848 149.076 49.5416 148.685 50.3976 147.776L49.4124 146.848C48.9031 147.39 48.0692 147.724 46.769 147.724V149.076ZM50.3833 147.79C51.2975 146.876 51.6694 145.437 51.6694 143.664H50.3166C50.3166 145.304 49.9631 146.297 49.4267 146.834L50.3833 147.79ZM51.6694 143.664V140.208H50.3166V143.664H51.6694ZM51.6694 140.208C51.6694 138.533 51.3664 137.165 50.6191 136.258L49.5749 137.118C50.0222 137.661 50.3166 138.64 50.3166 140.208H51.6694ZM50.6343 136.277C49.9097 135.33 48.7766 134.924 47.409 134.924V136.276C48.516 136.276 49.175 136.596 49.5597 137.099L50.6343 136.277ZM47.409 134.924H44.209V136.276H47.409V134.924ZM43.5326 135.6V148.4H44.8854V135.6H43.5326ZM44.209 149.076H46.769V147.724H44.209V149.076ZM72.9015 129.2V128.524H72.2251V129.2H72.9015ZM79.9415 129.2H80.6179V128.524H79.9415V129.2ZM79.9415 174V174.676H80.6179V174H79.9415ZM72.9015 174H72.2251V174.676H72.9015V174ZM72.9015 129.876H79.9415V128.524H72.9015V129.876ZM79.2651 129.2V174H80.6179V129.2H79.2651ZM79.9415 173.324H72.9015V174.676H79.9415V173.324ZM73.5779 174V129.2H72.2251V174H73.5779ZM97.31 171.76L96.8104 172.216L96.8155 172.222L97.31 171.76ZM97.31 131.504L97.8045 131.966L97.8095 131.96L97.31 131.504ZM112.926 131.504L112.426 131.96L112.432 131.966L112.926 131.504ZM115.614 143.664V144.34H116.29V143.664H115.614ZM108.958 143.664H108.282V144.34H108.958V143.664ZM108.958 155.12H109.634V154.444H108.958V155.12ZM105.438 155.12H104.762V155.796H105.438V155.12ZM105.438 148.72V148.044H104.762V148.72H105.438ZM115.614 148.72H116.29V148.044H115.614V148.72ZM112.926 171.76L113.421 172.222L113.426 172.216L112.926 171.76ZM105.118 173.964C101.833 173.964 99.4331 173.043 97.8045 171.298L96.8155 172.222C98.7709 174.317 101.576 175.316 105.118 175.316V173.964ZM97.8095 171.304C96.1673 169.505 95.2984 166.896 95.2984 163.376H93.9456C93.9456 167.109 94.8687 170.089 96.8105 172.216L97.8095 171.304ZM95.2984 163.376V139.824H93.9456V163.376H95.2984ZM95.2984 139.824C95.2984 136.303 96.1677 133.719 97.8045 131.966L96.8155 131.042C94.8683 133.129 93.9456 136.092 93.9456 139.824H95.2984ZM97.8095 131.96C99.4392 130.175 101.837 129.236 105.118 129.236V127.884C101.572 127.884 98.7648 128.907 96.8105 131.048L97.8095 131.96ZM105.118 129.236C108.399 129.236 110.797 130.175 112.426 131.96L113.426 131.048C111.471 128.907 108.664 127.884 105.118 127.884V129.236ZM112.432 131.966C114.068 133.719 114.938 136.303 114.938 139.824H116.29C116.29 136.092 115.368 133.129 113.421 131.042L112.432 131.966ZM114.938 139.824V143.664H116.29V139.824H114.938ZM115.614 142.988H108.958V144.34H115.614V142.988ZM109.634 143.664V139.376H108.282V143.664H109.634ZM109.634 139.376C109.634 137.828 109.317 136.541 108.567 135.633C107.797 134.701 106.668 134.284 105.31 134.284V135.636C106.384 135.636 107.079 135.955 107.525 136.495C107.991 137.059 108.282 137.98 108.282 139.376H109.634ZM105.31 134.284C103.952 134.284 102.823 134.701 102.053 135.633C101.303 136.541 100.986 137.828 100.986 139.376H102.338C102.338 137.98 102.629 137.059 103.095 136.495C103.541 135.955 104.236 135.636 105.31 135.636V134.284ZM100.986 139.376V163.888H102.338V139.376H100.986ZM100.986 163.888C100.986 165.417 101.303 166.689 102.056 167.587C102.827 168.507 103.955 168.916 105.31 168.916V167.564C104.233 167.564 103.537 167.248 103.092 166.717C102.629 166.164 102.338 165.261 102.338 163.888H100.986ZM105.31 168.916C106.665 168.916 107.793 168.507 108.564 167.587C109.317 166.689 109.634 165.417 109.634 163.888H108.282C108.282 165.261 107.991 166.164 107.528 166.717C107.083 167.248 106.387 167.564 105.31 167.564V168.916ZM109.634 163.888V155.12H108.282V163.888H109.634ZM108.958 154.444H105.438V155.796H108.958V154.444ZM106.114 155.12V148.72H104.762V155.12H106.114ZM105.438 149.396H115.614V148.044H105.438V149.396ZM114.938 148.72V163.376H116.29V148.72H114.938ZM114.938 163.376C114.938 166.896 114.069 169.505 112.426 171.304L113.426 172.216C115.367 170.089 116.29 167.109 116.29 163.376H114.938ZM112.432 171.298C110.803 173.043 108.403 173.964 105.118 173.964V175.316C108.66 175.316 111.465 174.317 113.421 172.222L112.432 171.298ZM135.494 129.2V128.524H134.919L134.826 129.091L135.494 129.2ZM145.03 129.2L145.698 129.091L145.605 128.524H145.03V129.2ZM152.326 174V174.676H153.121L152.994 173.891L152.326 174ZM145.286 174L144.616 174.096L144.7 174.676H145.286V174ZM144.006 165.104L144.676 165.008L143.33 165.104H144.006ZM144.006 165.232V165.908H144.682V165.232H144.006ZM136.006 165.232V164.556H135.421L135.337 165.134L136.006 165.232ZM134.726 174V174.676H135.311L135.395 174.098L134.726 174ZM128.198 174L127.53 173.891L127.403 174.676H128.198V174ZM143.174 159.152V159.828H143.953L143.844 159.057L143.174 159.152ZM140.038 137.008L140.708 136.913L140.625 136.332H140.038V137.008ZM139.91 137.008V136.332H139.321L139.24 136.915L139.91 137.008ZM136.838 159.152L136.168 159.059L136.061 159.828H136.838V159.152ZM135.494 129.876H145.03V128.524H135.494V129.876ZM144.362 129.309L151.658 174.109L152.994 173.891L145.698 129.091L144.362 129.309ZM152.326 173.324H145.286V174.676H152.326V173.324ZM145.956 173.904L144.676 165.008L143.336 165.2L144.616 174.096L145.956 173.904ZM143.33 165.104V165.232H144.682V165.104H143.33ZM144.006 164.556H136.006V165.908H144.006V164.556ZM135.337 165.134L134.057 173.902L135.395 174.098L136.675 165.33L135.337 165.134ZM134.726 173.324H128.198V174.676H134.726V173.324ZM128.866 174.109L136.162 129.309L134.826 129.091L127.53 173.891L128.866 174.109ZM143.844 159.057L140.708 136.913L139.368 137.103L142.504 159.247L143.844 159.057ZM140.038 136.332H139.91V137.684H140.038V136.332ZM139.24 136.915L136.168 159.059L137.508 159.245L140.58 137.101L139.24 136.915ZM136.838 159.828H143.174V158.476H136.838V159.828ZM165.661 129.2V128.524H164.985V129.2H165.661ZM175.71 129.2L176.379 129.106L176.298 128.524H175.71V129.2ZM180.19 161.264L179.52 161.358L179.601 161.94H180.19V161.264ZM180.318 161.264V161.94H180.906L180.987 161.358L180.318 161.264ZM184.798 129.2V128.524H184.209L184.128 129.106L184.798 129.2ZM194.846 129.2H195.522V128.524H194.846V129.2ZM194.846 174V174.676H195.522V174H194.846ZM188.19 174H187.513V174.676H188.19V174ZM188.19 140.08H188.866V139.404H188.19V140.08ZM188.062 140.08V139.404H187.48L187.393 139.979L188.062 140.08ZM182.942 174V174.676H183.523L183.61 174.101L182.942 174ZM177.054 174L176.385 174.101L176.472 174.676H177.054V174ZM171.934 140.08L172.602 139.979L172.515 139.404H171.934V140.08ZM171.806 140.08V139.404H171.129V140.08H171.806ZM171.806 174V174.676H172.482V174H171.806ZM165.661 174H164.985V174.676H165.661V174ZM165.661 129.876H175.71V128.524H165.661V129.876ZM175.04 129.294L179.52 161.358L180.859 161.17L176.379 129.106L175.04 129.294ZM180.19 161.94H180.318V160.588H180.19V161.94ZM180.987 161.358L185.467 129.294L184.128 129.106L179.648 161.17L180.987 161.358ZM184.798 129.876H194.846V128.524H184.798V129.876ZM194.169 129.2V174H195.522V129.2H194.169ZM194.846 173.324H188.19V174.676H194.846V173.324ZM188.866 174V140.08H187.513V174H188.866ZM188.19 139.404H188.062V140.756H188.19V139.404ZM187.393 139.979L182.273 173.899L183.61 174.101L188.73 140.181L187.393 139.979ZM182.942 173.324H177.054V174.676H182.942V173.324ZM177.722 173.899L172.602 139.979L171.265 140.181L176.385 174.101L177.722 173.899ZM171.934 139.404H171.806V140.756H171.934V139.404ZM171.129 140.08V174H172.482V140.08H171.129ZM171.806 173.324H165.661V174.676H171.806V173.324ZM166.338 174V129.2H164.985V174H166.338ZM210.019 129.2V128.524H209.343V129.2H210.019ZM217.059 129.2H217.735V128.524H217.059V129.2ZM217.059 174V174.676H217.735V174H217.059ZM210.019 174H209.343V174.676H210.019V174ZM210.019 129.876H217.059V128.524H210.019V129.876ZM216.383 129.2V174H217.735V129.2H216.383ZM217.059 173.324H210.019V174.676H217.059V173.324ZM210.695 174V129.2H209.343V174H210.695ZM252.421 129.2V128.524H251.745V129.2H252.421ZM270.661 132.016L270.167 132.477L270.661 132.016ZM270.661 152.944L270.167 152.483L270.661 152.944ZM259.461 155.76V155.084H258.785V155.76H259.461ZM259.461 174V174.676H260.138V174H259.461ZM252.421 174H251.745V174.676H252.421V174ZM265.349 148.4L264.855 147.938L264.846 147.948L264.838 147.957L265.349 148.4ZM265.349 136.56L264.838 137.003L264.846 137.012L264.855 137.022L265.349 136.56ZM259.461 135.6V134.924H258.785V135.6H259.461ZM259.461 149.36H258.785V150.036H259.461V149.36ZM252.421 129.876H262.789V128.524H252.421V129.876ZM262.789 129.876C266.171 129.876 268.587 130.781 270.167 132.477L271.156 131.555C269.238 129.496 266.405 128.524 262.789 128.524V129.876ZM270.167 132.477C271.759 134.186 272.609 136.746 272.609 140.272H273.962C273.962 136.545 273.063 133.601 271.156 131.555L270.167 132.477ZM272.609 140.272V144.688H273.962V140.272H272.609ZM272.609 144.688C272.609 148.214 271.759 150.774 270.167 152.483L271.156 153.405C273.063 151.359 273.962 148.415 273.962 144.688H272.609ZM270.167 152.483C268.587 154.179 266.171 155.084 262.789 155.084V156.436C266.405 156.436 269.238 155.464 271.156 153.405L270.167 152.483ZM262.789 155.084H259.461V156.436H262.789V155.084ZM258.785 155.76V174H260.138V155.76H258.785ZM259.461 173.324H252.421V174.676H259.461V173.324ZM253.098 174V129.2H251.745V174H253.098ZM262.789 150.036C264.063 150.036 265.136 149.679 265.861 148.843L264.838 147.957C264.454 148.401 263.82 148.684 262.789 148.684V150.036ZM265.844 148.862C266.62 148.031 266.922 146.725 266.922 145.136H265.569C265.569 146.619 265.274 147.489 264.855 147.938L265.844 148.862ZM266.922 145.136V139.824H265.569V145.136H266.922ZM266.922 139.824C266.922 138.235 266.62 136.929 265.844 136.098L264.855 137.022C265.274 137.471 265.569 138.341 265.569 139.824H266.922ZM265.861 136.117C265.136 135.281 264.063 134.924 262.789 134.924V136.276C263.82 136.276 264.454 136.559 264.838 137.003L265.861 136.117ZM262.789 134.924H259.461V136.276H262.789V134.924ZM258.785 135.6V149.36H260.138V135.6H258.785ZM259.461 150.036H262.789V148.684H259.461V150.036ZM287.029 129.2V128.524H286.353V129.2H287.029ZM294.069 129.2H294.745V128.524H294.069V129.2ZM294.069 167.6H293.393V168.276H294.069V167.6ZM305.653 167.6H306.329V166.924H305.653V167.6ZM305.653 174V174.676H306.329V174H305.653ZM287.029 174H286.353V174.676H287.029V174ZM287.029 129.876H294.069V128.524H287.029V129.876ZM293.393 129.2V167.6H294.745V129.2H293.393ZM294.069 168.276H305.653V166.924H294.069V168.276ZM304.977 167.6V174H306.329V167.6H304.977ZM305.653 173.324H287.029V174.676H305.653V173.324ZM287.705 174V129.2H286.353V174H287.705ZM324.639 129.2V128.524H324.064L323.971 129.091L324.639 129.2ZM334.175 129.2L334.843 129.091L334.75 128.524H334.175V129.2ZM341.471 174V174.676H342.267L342.139 173.891L341.471 174ZM334.431 174L333.762 174.096L333.845 174.676H334.431V174ZM333.151 165.104L333.821 165.008L332.475 165.104H333.151ZM333.151 165.232V165.908H333.827V165.232H333.151ZM325.151 165.232V164.556H324.566L324.482 165.134L325.151 165.232ZM323.871 174V174.676H324.456L324.54 174.098L323.871 174ZM317.343 174L316.675 173.891L316.548 174.676H317.343V174ZM332.319 159.152V159.828H333.098L332.989 159.057L332.319 159.152ZM329.183 137.008L329.853 136.913L329.77 136.332H329.183V137.008ZM329.055 137.008V136.332H328.466L328.385 136.915L329.055 137.008ZM325.983 159.152L325.313 159.059L325.206 159.828H325.983V159.152ZM324.639 129.876H334.175V128.524H324.639V129.876ZM333.507 129.309L340.803 174.109L342.139 173.891L334.843 129.091L333.507 129.309ZM341.471 173.324H334.431V174.676H341.471V173.324ZM335.101 173.904L333.821 165.008L332.481 165.2L333.762 174.096L335.101 173.904ZM332.475 165.104V165.232H333.827V165.104H332.475ZM333.151 164.556H325.151V165.908H333.151V164.556ZM324.482 165.134L323.202 173.902L324.54 174.098L325.82 165.33L324.482 165.134ZM323.871 173.324H317.343V174.676H323.871V173.324ZM318.011 174.109L325.307 129.309L323.971 129.091L316.675 173.891L318.011 174.109ZM332.989 159.057L329.853 136.913L328.513 137.103L331.649 159.247L332.989 159.057ZM329.183 136.332H329.055V137.684H329.183V136.332ZM328.385 136.915L325.313 159.059L326.653 159.245L329.725 137.101L328.385 136.915ZM325.983 159.828H332.319V158.476H325.983V159.828ZM354.806 129.2V128.524H354.13V129.2H354.806ZM363.638 129.2L364.294 129.033L364.164 128.524H363.638V129.2ZM370.487 156.016L369.831 156.183L369.961 156.692H370.487V156.016ZM370.615 156.016V156.692H371.291V156.016H370.615ZM370.615 129.2V128.524H369.938V129.2H370.615ZM376.887 129.2H377.563V128.524H376.887V129.2ZM376.887 174V174.676H377.563V174H376.887ZM369.654 174L369 174.169L369.131 174.676H369.654V174ZM361.206 141.296L361.861 141.127L361.73 140.62H361.206V141.296ZM361.078 141.296V140.62H360.402V141.296H361.078ZM361.078 174V174.676H361.755V174H361.078ZM354.806 174H354.13V174.676H354.806V174ZM354.806 129.876H363.638V128.524H354.806V129.876ZM362.983 129.367L369.831 156.183L371.142 155.849L364.294 129.033L362.983 129.367ZM370.487 156.692H370.615V155.34H370.487V156.692ZM371.291 156.016V129.2H369.938V156.016H371.291ZM370.615 129.876H376.887V128.524H370.615V129.876ZM376.21 129.2V174H377.563V129.2H376.21ZM376.887 173.324H369.654V174.676H376.887V173.324ZM370.309 173.831L361.861 141.127L360.552 141.465L369 174.169L370.309 173.831ZM361.206 140.62H361.078V141.972H361.206V140.62ZM360.402 141.296V174H361.755V141.296H360.402ZM361.078 173.324H354.806V174.676H361.078V173.324ZM355.483 174V129.2H354.13V174H355.483ZM397.543 135.6H398.219V134.924H397.543V135.6ZM390.183 135.6H389.507V136.276H390.183V135.6ZM390.183 129.2V128.524H389.507V129.2H390.183ZM411.943 129.2H412.619V128.524H411.943V129.2ZM411.943 135.6V136.276H412.619V135.6H411.943ZM404.583 135.6V134.924H403.907V135.6H404.583ZM404.583 174V174.676H405.259V174H404.583ZM397.543 174H396.867V174.676H397.543V174ZM397.543 134.924H390.183V136.276H397.543V134.924ZM390.859 135.6V129.2H389.507V135.6H390.859ZM390.183 129.876H411.943V128.524H390.183V129.876ZM411.267 129.2V135.6H412.619V129.2H411.267ZM411.943 134.924H404.583V136.276H411.943V134.924ZM403.907 135.6V174H405.259V135.6H403.907ZM404.583 173.324H397.543V174.676H404.583V173.324ZM398.219 174V135.6H396.867V174H398.219ZM1.624 193.2V192.524H0.947583V193.2H1.624ZM19.864 196.016L19.3691 196.477H19.3691L19.864 196.016ZM19.864 216.944L19.3691 216.483L19.864 216.944ZM8.664 219.76V219.084H7.98758V219.76H8.664ZM8.664 238V238.676H9.34042V238H8.664ZM1.624 238H0.947583V238.676H1.624V238ZM14.552 212.4L14.0575 211.938L14.049 211.948L14.0408 211.957L14.552 212.4ZM14.552 200.56L14.0408 201.003L14.049 201.012L14.0575 201.022L14.552 200.56ZM8.664 199.6V198.924H7.98758V199.6H8.664ZM8.664 213.36H7.98758V214.036H8.664V213.36ZM1.624 193.876H11.992V192.524H1.624V193.876ZM11.992 193.876C15.3737 193.876 17.7891 194.781 19.3691 196.477L20.3589 195.555C18.4403 193.496 15.6077 192.524 11.992 192.524V193.876ZM19.3691 196.477C20.9611 198.186 21.8116 200.746 21.8116 204.272H23.1644C23.1644 200.545 22.2655 197.601 20.3589 195.555L19.3691 196.477ZM21.8116 204.272V208.688H23.1644V204.272H21.8116ZM21.8116 208.688C21.8116 212.214 20.9611 214.774 19.3691 216.483L20.3589 217.405C22.2655 215.359 23.1644 212.415 23.1644 208.688H21.8116ZM19.3691 216.483C17.7891 218.179 15.3737 219.084 11.992 219.084V220.436C15.6077 220.436 18.4403 219.464 20.3589 217.405L19.3691 216.483ZM11.992 219.084H8.664V220.436H11.992V219.084ZM7.98758 219.76V238H9.34042V219.76H7.98758ZM8.664 237.324H1.624V238.676H8.664V237.324ZM2.30042 238V193.2H0.947583V238H2.30042ZM11.992 214.036C13.266 214.036 14.3383 213.679 15.0632 212.843L14.0408 211.957C13.6564 212.401 13.022 212.684 11.992 212.684V214.036ZM15.0465 212.862C15.822 212.031 16.1244 210.725 16.1244 209.136H14.7716C14.7716 210.619 14.4766 211.489 14.0575 211.938L15.0465 212.862ZM16.1244 209.136V203.824H14.7716V209.136H16.1244ZM16.1244 203.824C16.1244 202.235 15.822 200.929 15.0465 200.098L14.0575 201.022C14.4766 201.471 14.7716 202.341 14.7716 203.824H16.1244ZM15.0632 200.117C14.3383 199.281 13.266 198.924 11.992 198.924V200.276C13.022 200.276 13.6564 200.559 14.0408 201.003L15.0632 200.117ZM11.992 198.924H8.664V200.276H11.992V198.924ZM7.98758 199.6V213.36H9.34042V199.6H7.98758ZM8.664 214.036H11.992V212.684H8.664V214.036ZM38.4715 235.696L38.9656 235.234L38.4715 235.696ZM38.4715 195.504L38.9656 195.966L38.4715 195.504ZM54.3435 195.504L53.8494 195.966L54.3435 195.504ZM54.3435 235.696L53.8494 235.234L54.3435 235.696ZM46.4075 237.964C43.0821 237.964 40.6382 237.023 38.9656 235.234L37.9774 236.158C39.9741 238.294 42.8209 239.316 46.4075 239.316V237.964ZM38.9656 235.234C37.2828 233.434 36.3959 230.847 36.3959 227.376H35.0431C35.0431 231.073 35.9909 234.033 37.9774 236.158L38.9656 235.234ZM36.3959 227.376V203.824H35.0431V227.376H36.3959ZM36.3959 203.824C36.3959 200.353 37.2828 197.766 38.9656 195.966L37.9774 195.042C35.9909 197.167 35.0431 200.127 35.0431 203.824H36.3959ZM38.9656 195.966C40.6382 194.177 43.0821 193.236 46.4075 193.236V191.884C42.8209 191.884 39.9741 192.906 37.9774 195.042L38.9656 195.966ZM46.4075 193.236C49.7329 193.236 52.1768 194.177 53.8494 195.966L54.8376 195.042C52.8409 192.906 49.9941 191.884 46.4075 191.884V193.236ZM53.8494 195.966C55.5322 197.766 56.4191 200.353 56.4191 203.824H57.7719C57.7719 200.127 56.8241 197.167 54.8376 195.042L53.8494 195.966ZM56.4191 203.824V227.376H57.7719V203.824H56.4191ZM56.4191 227.376C56.4191 230.847 55.5322 233.434 53.8494 235.234L54.8376 236.158C56.8241 234.033 57.7719 231.073 57.7719 227.376H56.4191ZM53.8494 235.234C52.1768 237.023 49.7329 237.964 46.4075 237.964V239.316C49.9941 239.316 52.8409 238.294 54.8376 236.158L53.8494 235.234ZM46.4075 232.916C47.7654 232.916 48.8947 232.499 49.665 231.567C50.4148 230.659 50.7319 229.372 50.7319 227.824H49.3791C49.3791 229.22 49.0882 230.141 48.622 230.705C48.1763 231.245 47.4816 231.564 46.4075 231.564V232.916ZM50.7319 227.824V203.376H49.3791V227.824H50.7319ZM50.7319 203.376C50.7319 201.828 50.4148 200.541 49.665 199.633C48.8947 198.701 47.7654 198.284 46.4075 198.284V199.636C47.4816 199.636 48.1763 199.955 48.622 200.495C49.0882 201.059 49.3791 201.98 49.3791 203.376H50.7319ZM46.4075 198.284C45.0496 198.284 43.9203 198.701 43.15 199.633C42.4002 200.541 42.0831 201.828 42.0831 203.376H43.4359C43.4359 201.98 43.7268 201.059 44.193 200.495C44.6387 199.955 45.3334 199.636 46.4075 199.636V198.284ZM42.0831 203.376V227.824H43.4359V203.376H42.0831ZM42.0831 227.824C42.0831 229.372 42.4002 230.659 43.15 231.567C43.9203 232.499 45.0496 232.916 46.4075 232.916V231.564C45.3334 231.564 44.6387 231.245 44.193 230.705C43.7268 230.141 43.4359 229.22 43.4359 227.824H42.0831ZM77.0305 199.6H77.7069V198.924H77.0305V199.6ZM69.6705 199.6H68.9941V200.276H69.6705V199.6ZM69.6705 193.2V192.524H68.9941V193.2H69.6705ZM91.4305 193.2H92.1069V192.524H91.4305V193.2ZM91.4305 199.6V200.276H92.1069V199.6H91.4305ZM84.0705 199.6V198.924H83.3941V199.6H84.0705ZM84.0705 238V238.676H84.7469V238H84.0705ZM77.0305 238H76.3541V238.676H77.0305V238ZM77.0305 198.924H69.6705V200.276H77.0305V198.924ZM70.3469 199.6V193.2H68.9941V199.6H70.3469ZM69.6705 193.876H91.4305V192.524H69.6705V193.876ZM90.7541 193.2V199.6H92.1069V193.2H90.7541ZM91.4305 198.924H84.0705V200.276H91.4305V198.924ZM83.3941 199.6V238H84.7469V199.6H83.3941ZM84.0705 237.324H77.0305V238.676H84.0705V237.324ZM77.7069 238V199.6H76.3541V238H77.7069ZM106.167 235.76L105.662 236.21L105.667 236.216L106.167 235.76ZM103.543 224.816V224.14H102.867V224.816H103.543ZM110.199 224.816H110.875V224.14H110.199V224.816ZM116.535 231.216L116.028 230.768L116.026 230.771L116.535 231.216ZM116.215 222.832L115.632 223.175L115.637 223.183L116.215 222.832ZM111.479 217.648L111.031 218.155L111.035 218.158L111.479 217.648ZM105.399 210.736L104.807 211.062L104.809 211.068L105.399 210.736ZM106.359 195.504L106.854 195.966L106.859 195.96L106.359 195.504ZM121.783 195.504L121.273 195.948L121.278 195.954L121.283 195.96L121.783 195.504ZM124.407 205.68V206.356H125.083V205.68H124.407ZM117.751 205.68H117.075V206.356H117.751V205.68ZM116.855 200.048L116.333 200.478L116.339 200.486L116.346 200.493L116.855 200.048ZM111.991 207.792L111.413 208.143L111.416 208.149L111.42 208.155L111.991 207.792ZM116.791 212.912L116.347 213.422L116.347 213.422L116.791 212.912ZM122.871 219.888L122.273 220.205L122.871 219.888ZM121.783 235.696L121.289 235.234L121.283 235.24L121.783 235.696ZM113.911 237.964C110.625 237.964 108.251 237.043 106.667 235.304L105.667 236.216C107.582 238.317 110.37 239.316 113.911 239.316V237.964ZM106.672 235.31C105.069 233.511 104.219 230.9 104.219 227.376H102.867C102.867 231.105 103.766 234.083 105.662 236.21L106.672 235.31ZM104.219 227.376V224.816H102.867V227.376H104.219ZM103.543 225.492H110.199V224.14H103.543V225.492ZM109.523 224.816V227.888H110.875V224.816H109.523ZM109.523 227.888C109.523 229.417 109.84 230.689 110.593 231.587C111.364 232.507 112.492 232.916 113.847 232.916V231.564C112.77 231.564 112.074 231.248 111.629 230.717C111.166 230.164 110.875 229.261 110.875 227.888H109.523ZM113.847 232.916C115.171 232.916 116.281 232.534 117.044 231.661L116.026 230.771C115.595 231.263 114.912 231.564 113.847 231.564V232.916ZM117.042 231.664C117.842 230.757 118.171 229.406 118.171 227.76H116.819C116.819 229.271 116.508 230.224 116.028 230.768L117.042 231.664ZM118.171 227.76C118.171 225.777 117.719 224.009 116.793 222.481L115.637 223.183C116.417 224.471 116.819 225.989 116.819 227.76H118.171ZM116.798 222.489C115.889 220.944 114.245 219.159 111.923 217.138L111.035 218.158C113.321 220.148 114.834 221.819 115.632 223.175L116.798 222.489ZM111.927 217.141C109.05 214.603 107.087 212.357 105.989 210.404L104.809 211.068C106.015 213.211 108.105 215.573 111.031 218.155L111.927 217.141ZM105.991 210.41C104.899 208.428 104.347 206.195 104.347 203.696H102.995C102.995 206.402 103.595 208.863 104.807 211.062L105.991 210.41ZM104.347 203.696C104.347 200.265 105.214 197.722 106.854 195.966L105.865 195.042C103.92 197.126 102.995 200.044 102.995 203.696H104.347ZM106.859 195.96C108.488 194.175 110.886 193.236 114.167 193.236V191.884C110.621 191.884 107.814 192.907 105.859 195.048L106.859 195.96ZM114.167 193.236C117.404 193.236 119.73 194.174 121.273 195.948L122.293 195.06C120.423 192.909 117.672 191.884 114.167 191.884V193.236ZM121.283 195.96C122.881 197.713 123.731 200.299 123.731 203.824H125.083C125.083 200.096 124.184 197.135 122.283 195.048L121.283 195.96ZM123.731 203.824V205.68H125.083V203.824H123.731ZM124.407 205.004H117.751V206.356H124.407V205.004ZM118.427 205.68V203.376H117.075V205.68H118.427ZM118.427 203.376C118.427 201.781 118.123 200.469 117.364 199.603L116.346 200.493C116.782 200.992 117.075 201.899 117.075 203.376H118.427ZM117.377 199.618C116.623 198.702 115.535 198.284 114.231 198.284V199.636C115.231 199.636 115.893 199.944 116.333 200.478L117.377 199.618ZM114.231 198.284C112.914 198.284 111.817 198.691 111.068 199.603C110.341 200.489 110.035 201.743 110.035 203.248H111.387C111.387 201.894 111.668 201.004 112.114 200.461C112.539 199.944 113.201 199.636 114.231 199.636V198.284ZM110.035 203.248C110.035 204.995 110.496 206.631 111.413 208.143L112.569 207.441C111.779 206.137 111.387 204.744 111.387 203.248H110.035ZM111.42 208.155C112.369 209.646 114.027 211.403 116.347 213.422L117.235 212.402C114.947 210.41 113.405 208.754 112.562 207.429L111.42 208.155ZM116.347 213.422C119.264 215.959 121.22 218.22 122.273 220.205L123.469 219.571C122.303 217.375 120.206 214.985 117.235 212.402L116.347 213.422ZM122.273 220.205C123.322 222.181 123.859 224.522 123.859 227.248H125.211C125.211 224.342 124.639 221.776 123.469 219.571L122.273 220.205ZM123.859 227.248C123.859 230.809 122.969 233.437 121.289 235.234L122.277 236.158C124.266 234.03 125.211 231.025 125.211 227.248H123.859ZM121.283 235.24C119.655 237.023 117.237 237.964 113.911 237.964V239.316C117.497 239.316 120.327 238.294 122.283 236.152L121.283 235.24Z" fill="#03839E"/>
</svg>
